<svg xmlns="http://www.w3.org/2000/svg" viewBox="0 0 100 125"><g><path d="M83.425,90V10c0-0.553-0.448-1-1-1H22.424c-0.552,0-1,0.447-1,1v8.834h-3.849v1.199h3.849v7.534h-3.849v1.199h3.849V36.3   h-3.849v1.199h3.849v7.534h-3.849v1.199h3.849v7.535h-3.849v1.199h3.849V62.5h-3.849v1.199h3.849v7.534h-3.849v1.199h3.849v7.534   h-3.849v1.199h3.849V90c0,0.553,0.448,1,1,1h60.001C82.977,91,83.425,90.553,83.425,90z M23.424,81.166h3.849v-1.199h-3.849v-7.534   h3.849v-1.199h-3.849v-7.534h3.849V62.5h-3.849v-7.533h3.849v-1.199h-3.849v-7.535h3.849v-1.199h-3.849v-7.534h3.849V36.3h-3.849   v-7.533h3.849v-1.199h-3.849v-7.534h3.849v-1.199h-3.849V11h51.166v78H23.424V81.166z M81.425,89H75.79V11h5.635V89z"/></g></svg>