<svg xmlns="http://www.w3.org/2000/svg" viewBox="0 0 100 125"><g><g><path d="M78.307,12.5v75h-58v-4h3.5h0.5V83v-2v-0.5h-0.5h-3.5v-2h3.5h0.5V78v-2v-0.5h-0.5h-3.5v-2h3.5h0.5V73v-2v-0.5h-0.5h-3.5    v-2h3.5h0.5V68v-2v-0.5h-0.5h-3.5v-2h3.5h0.5V63v-2v-0.5h-0.5h-3.5v-2h3.5h0.5V58v-2v-0.5h-0.5h-3.5v-2h3.5h0.5V53v-2v-0.5h-0.5    h-3.5v-2h3.5h0.5V48v-2v-0.5h-0.5h-3.5v-2h3.5h0.5V43v-2v-0.5h-0.5h-3.5v-2h3.5h0.5V38v-2v-0.5h-0.5h-3.5v-2h3.5h0.5V33v-2v-0.5    h-0.5h-3.5v-2h3.5h0.5V28v-2v-0.5h-0.5h-3.5v-2h3.5h0.5V23v-2v-0.5h-0.5h-3.5v-2h3.5h0.5V18v-2v-0.5h-0.5h-3.5v-3H78.307     M78.807,12h-59v4h4v2h-4v3h4v2h-4v3h4v2h-4v3h4v2h-4v3h4v2h-4v3h4v2h-4v3h4v2h-4v3h4v2h-4v3h4v2h-4v3h4v2h-4v3h4v2h-4v3h4v2h-4v3    h4v2h-4v3h4v2h-4v5h59V12L78.807,12z"/></g><g><g><rect x="16.888" y="16.781" width="5.838" height="0.334"/><polygon points="22.987,16.521 16.627,16.521 16.627,17.377 22.987,17.377 22.987,16.521    "/></g><g><rect x="16.888" y="21.781" width="5.838" height="0.334"/><polygon points="22.987,21.521 16.627,21.521 16.627,22.377 22.987,22.377 22.987,21.521    "/></g><g><rect x="16.888" y="26.781" width="5.838" height="0.334"/><polygon points="22.987,26.521 16.627,26.521 16.627,27.377 22.987,27.377 22.987,26.521    "/></g><g><rect x="16.888" y="31.782" width="5.838" height="0.334"/><polygon points="22.987,31.521 16.627,31.521 16.627,32.377 22.987,32.377 22.987,31.521    "/></g><g><rect x="16.888" y="36.782" width="5.838" height="0.334"/><polygon points="22.987,36.521 16.627,36.521 16.627,37.377 22.987,37.377 22.987,36.521    "/></g><g><rect x="16.888" y="41.782" width="5.838" height="0.334"/><polygon points="22.987,41.521 16.627,41.521 16.627,42.377 22.987,42.377 22.987,41.521    "/></g><g><rect x="16.888" y="46.782" width="5.838" height="0.334"/><polygon points="22.987,46.521 16.627,46.521 16.627,47.377 22.987,47.377 22.987,46.521    "/></g><g><rect x="16.888" y="51.782" width="5.838" height="0.334"/><polygon points="22.987,51.521 16.627,51.521 16.627,52.377 22.987,52.377 22.987,51.521    "/></g><g><rect x="16.888" y="56.782" width="5.838" height="0.334"/><polygon points="22.987,56.521 16.627,56.521 16.627,57.377 22.987,57.377 22.987,56.521    "/></g><g><rect x="16.888" y="61.782" width="5.838" height="0.334"/><polygon points="22.987,61.521 16.627,61.521 16.627,62.377 22.987,62.377 22.987,61.521    "/></g><g><rect x="16.888" y="66.782" width="5.838" height="0.334"/><polygon points="22.987,66.521 16.627,66.521 16.627,67.377 22.987,67.377 22.987,66.521    "/></g><g><rect x="16.888" y="71.782" width="5.838" height="0.334"/><polygon points="22.987,71.521 16.627,71.521 16.627,72.377 22.987,72.377 22.987,71.521    "/></g><g><rect x="16.888" y="76.782" width="5.838" height="0.334"/><polygon points="22.987,76.521 16.627,76.521 16.627,77.377 22.987,77.377 22.987,76.521    "/></g><g><rect x="16.888" y="81.782" width="5.838" height="0.334"/><polygon points="22.987,81.521 16.627,81.521 16.627,82.377 22.987,82.377 22.987,81.521    "/></g></g></g><g><g><path fill="none" stroke="#000000" stroke-width="0.1081" stroke-miterlimit="10" d="M31.962,37.05c0,0,0.932-1.049,1.981,0    c1.049,1.049,1.835,0,1.835,0s0.743-0.859,1.602,0c0,0,0.816,1.253,2.069,0"/><path fill="none" stroke="#000000" stroke-width="0.1081" stroke-miterlimit="10" d="M61.912,37.05c0,0,0.932-1.049,1.981,0    s1.835,0,1.835,0s0.743-0.859,1.602,0c0,0,0.816,1.253,2.069,0"/><path fill="none" stroke="#000000" stroke-width="0.1081" stroke-miterlimit="10" d="M39.45,37.05c0,0,0.932-1.049,1.981,0    s1.835,0,1.835,0s0.743-0.859,1.602,0c0,0,0.816,1.253,2.069,0"/><path fill="none" stroke="#000000" stroke-width="0.1081" stroke-miterlimit="10" d="M46.938,37.05c0,0,0.932-1.049,1.981,0    s1.835,0,1.835,0s0.743-0.859,1.602,0c0,0,0.816,1.253,2.069,0"/><path fill="none" stroke="#000000" stroke-width="0.1081" stroke-miterlimit="10" d="M54.425,37.05c0,0,0.932-1.049,1.981,0    s1.835,0,1.835,0s0.743-0.859,1.602,0c0,0,0.816,1.253,2.069,0"/></g><g><path fill="none" stroke="#000000" stroke-width="0.1081" stroke-miterlimit="10" d="M31.962,40.6c0,0,0.932-1.049,1.981,0    c1.049,1.049,1.835,0,1.835,0s0.743-0.859,1.602,0c0,0,0.816,1.253,2.069,0"/><path fill="none" stroke="#000000" stroke-width="0.1081" stroke-miterlimit="10" d="M61.912,40.6c0,0,0.932-1.049,1.981,0    c1.049,1.049,1.835,0,1.835,0s0.743-0.859,1.602,0c0,0,0.816,1.253,2.069,0"/><path fill="none" stroke="#000000" stroke-width="0.1081" stroke-miterlimit="10" d="M39.45,40.6c0,0,0.932-1.049,1.981,0    c1.049,1.049,1.835,0,1.835,0s0.743-0.859,1.602,0c0,0,0.816,1.253,2.069,0"/><path fill="none" stroke="#000000" stroke-width="0.1081" stroke-miterlimit="10" d="M46.938,40.6c0,0,0.932-1.049,1.981,0    c1.049,1.049,1.835,0,1.835,0s0.743-0.859,1.602,0c0,0,0.816,1.253,2.069,0"/><path fill="none" stroke="#000000" stroke-width="0.1081" stroke-miterlimit="10" d="M54.425,40.6c0,0,0.932-1.049,1.981,0    c1.049,1.049,1.835,0,1.835,0s0.743-0.859,1.602,0c0,0,0.816,1.253,2.069,0"/></g><g><path fill="none" stroke="#000000" stroke-width="0.1081" stroke-miterlimit="10" d="M31.962,44.15c0,0,0.932-1.049,1.981,0    c1.049,1.049,1.835,0,1.835,0s0.743-0.859,1.602,0c0,0,0.816,1.253,2.069,0"/><path fill="none" stroke="#000000" stroke-width="0.1081" stroke-miterlimit="10" d="M61.912,44.15c0,0,0.932-1.049,1.981,0    c1.049,1.049,1.835,0,1.835,0s0.743-0.859,1.602,0c0,0,0.816,1.253,2.069,0"/><path fill="none" stroke="#000000" stroke-width="0.1081" stroke-miterlimit="10" d="M39.45,44.15c0,0,0.932-1.049,1.981,0    c1.049,1.049,1.835,0,1.835,0s0.743-0.859,1.602,0c0,0,0.816,1.253,2.069,0"/><path fill="none" stroke="#000000" stroke-width="0.1081" stroke-miterlimit="10" d="M46.938,44.15c0,0,0.932-1.049,1.981,0    c1.049,1.049,1.835,0,1.835,0s0.743-0.859,1.602,0c0,0,0.816,1.253,2.069,0"/><path fill="none" stroke="#000000" stroke-width="0.1081" stroke-miterlimit="10" d="M54.425,44.15c0,0,0.932-1.049,1.981,0    c1.049,1.049,1.835,0,1.835,0s0.743-0.859,1.602,0c0,0,0.816,1.253,2.069,0"/></g><g><path fill="none" stroke="#000000" stroke-width="0.1081" stroke-miterlimit="10" d="M31.962,47.7c0,0,0.932-1.049,1.981,0    c1.049,1.049,1.835,0,1.835,0s0.743-0.859,1.602,0c0,0,0.816,1.253,2.069,0"/><path fill="none" stroke="#000000" stroke-width="0.1081" stroke-miterlimit="10" d="M61.912,47.7c0,0,0.932-1.049,1.981,0    c1.049,1.049,1.835,0,1.835,0s0.743-0.859,1.602,0c0,0,0.816,1.253,2.069,0"/><path fill="none" stroke="#000000" stroke-width="0.1081" stroke-miterlimit="10" d="M39.45,47.7c0,0,0.932-1.049,1.981,0    c1.049,1.049,1.835,0,1.835,0s0.743-0.859,1.602,0c0,0,0.816,1.253,2.069,0"/><path fill="none" stroke="#000000" stroke-width="0.1081" stroke-miterlimit="10" d="M46.938,47.7c0,0,0.932-1.049,1.981,0    c1.049,1.049,1.835,0,1.835,0s0.743-0.859,1.602,0c0,0,0.816,1.253,2.069,0"/><path fill="none" stroke="#000000" stroke-width="0.1081" stroke-miterlimit="10" d="M54.425,47.7c0,0,0.932-1.049,1.981,0    c1.049,1.049,1.835,0,1.835,0s0.743-0.859,1.602,0c0,0,0.816,1.253,2.069,0"/></g><g><path fill="none" stroke="#000000" stroke-width="0.1081" stroke-miterlimit="10" d="M31.962,51.25c0,0,0.932-1.049,1.981,0    c1.049,1.049,1.835,0,1.835,0s0.743-0.859,1.602,0c0,0,0.816,1.253,2.069,0"/><path fill="none" stroke="#000000" stroke-width="0.1081" stroke-miterlimit="10" d="M61.912,51.25c0,0,0.932-1.049,1.981,0    s1.835,0,1.835,0s0.743-0.859,1.602,0c0,0,0.816,1.253,2.069,0"/><path fill="none" stroke="#000000" stroke-width="0.1081" stroke-miterlimit="10" d="M39.45,51.25c0,0,0.932-1.049,1.981,0    s1.835,0,1.835,0s0.743-0.859,1.602,0c0,0,0.816,1.253,2.069,0"/><path fill="none" stroke="#000000" stroke-width="0.1081" stroke-miterlimit="10" d="M46.938,51.25c0,0,0.932-1.049,1.981,0    s1.835,0,1.835,0s0.743-0.859,1.602,0c0,0,0.816,1.253,2.069,0"/><path fill="none" stroke="#000000" stroke-width="0.1081" stroke-miterlimit="10" d="M54.425,51.25c0,0,0.932-1.049,1.981,0    s1.835,0,1.835,0s0.743-0.859,1.602,0c0,0,0.816,1.253,2.069,0"/></g><g><path fill="none" stroke="#000000" stroke-width="0.1081" stroke-miterlimit="10" d="M31.962,54.799c0,0,0.932-1.049,1.981,0    c1.049,1.049,1.835,0,1.835,0s0.743-0.859,1.602,0c0,0,0.816,1.253,2.069,0"/><path fill="none" stroke="#000000" stroke-width="0.1081" stroke-miterlimit="10" d="M61.912,54.799c0,0,0.932-1.049,1.981,0    s1.835,0,1.835,0s0.743-0.859,1.602,0c0,0,0.816,1.253,2.069,0"/><path fill="none" stroke="#000000" stroke-width="0.1081" stroke-miterlimit="10" d="M39.45,54.799c0,0,0.932-1.049,1.981,0    s1.835,0,1.835,0s0.743-0.859,1.602,0c0,0,0.816,1.253,2.069,0"/><path fill="none" stroke="#000000" stroke-width="0.1081" stroke-miterlimit="10" d="M46.938,54.799c0,0,0.932-1.049,1.981,0    s1.835,0,1.835,0s0.743-0.859,1.602,0c0,0,0.816,1.253,2.069,0"/><path fill="none" stroke="#000000" stroke-width="0.1081" stroke-miterlimit="10" d="M54.425,54.799c0,0,0.932-1.049,1.981,0    s1.835,0,1.835,0s0.743-0.859,1.602,0c0,0,0.816,1.253,2.069,0"/></g><g><path fill="none" stroke="#000000" stroke-width="0.1081" stroke-miterlimit="10" d="M31.962,58.349c0,0,0.932-1.049,1.981,0    c1.049,1.049,1.835,0,1.835,0s0.743-0.859,1.602,0c0,0,0.816,1.253,2.069,0"/><path fill="none" stroke="#000000" stroke-width="0.1081" stroke-miterlimit="10" d="M61.912,58.349c0,0,0.932-1.049,1.981,0    s1.835,0,1.835,0s0.743-0.859,1.602,0c0,0,0.816,1.253,2.069,0"/><path fill="none" stroke="#000000" stroke-width="0.1081" stroke-miterlimit="10" d="M39.45,58.349c0,0,0.932-1.049,1.981,0    s1.835,0,1.835,0s0.743-0.859,1.602,0c0,0,0.816,1.253,2.069,0"/><path fill="none" stroke="#000000" stroke-width="0.1081" stroke-miterlimit="10" d="M46.938,58.349c0,0,0.932-1.049,1.981,0    s1.835,0,1.835,0s0.743-0.859,1.602,0c0,0,0.816,1.253,2.069,0"/><path fill="none" stroke="#000000" stroke-width="0.1081" stroke-miterlimit="10" d="M54.425,58.349c0,0,0.932-1.049,1.981,0    s1.835,0,1.835,0s0.743-0.859,1.602,0c0,0,0.816,1.253,2.069,0"/></g><g><path fill="none" stroke="#000000" stroke-width="0.1081" stroke-miterlimit="10" d="M31.962,61.899c0,0,0.932-1.049,1.981,0    c1.049,1.049,1.835,0,1.835,0s0.743-0.859,1.602,0c0,0,0.816,1.253,2.069,0"/><path fill="none" stroke="#000000" stroke-width="0.1081" stroke-miterlimit="10" d="M61.912,61.899c0,0,0.932-1.049,1.981,0    s1.835,0,1.835,0s0.743-0.859,1.602,0c0,0,0.816,1.253,2.069,0"/><path fill="none" stroke="#000000" stroke-width="0.1081" stroke-miterlimit="10" d="M39.45,61.899c0,0,0.932-1.049,1.981,0    s1.835,0,1.835,0s0.743-0.859,1.602,0c0,0,0.816,1.253,2.069,0"/><path fill="none" stroke="#000000" stroke-width="0.1081" stroke-miterlimit="10" d="M46.938,61.899c0,0,0.932-1.049,1.981,0    s1.835,0,1.835,0s0.743-0.859,1.602,0c0,0,0.816,1.253,2.069,0"/><path fill="none" stroke="#000000" stroke-width="0.1081" stroke-miterlimit="10" d="M54.425,61.899c0,0,0.932-1.049,1.981,0    s1.835,0,1.835,0s0.743-0.859,1.602,0c0,0,0.816,1.253,2.069,0"/></g><g><path fill="none" stroke="#000000" stroke-width="0.1081" stroke-miterlimit="10" d="M31.962,65.449c0,0,0.932-1.049,1.981,0    c1.049,1.049,1.835,0,1.835,0s0.743-0.859,1.602,0c0,0,0.816,1.253,2.069,0"/><path fill="none" stroke="#000000" stroke-width="0.1081" stroke-miterlimit="10" d="M61.912,65.449c0,0,0.932-1.049,1.981,0    c1.049,1.049,1.835,0,1.835,0s0.743-0.859,1.602,0c0,0,0.816,1.253,2.069,0"/><path fill="none" stroke="#000000" stroke-width="0.1081" stroke-miterlimit="10" d="M39.45,65.449c0,0,0.932-1.049,1.981,0    c1.049,1.049,1.835,0,1.835,0s0.743-0.859,1.602,0c0,0,0.816,1.253,2.069,0"/><path fill="none" stroke="#000000" stroke-width="0.1081" stroke-miterlimit="10" d="M46.938,65.449c0,0,0.932-1.049,1.981,0    c1.049,1.049,1.835,0,1.835,0s0.743-0.859,1.602,0c0,0,0.816,1.253,2.069,0"/><path fill="none" stroke="#000000" stroke-width="0.1081" stroke-miterlimit="10" d="M54.425,65.449c0,0,0.932-1.049,1.981,0    c1.049,1.049,1.835,0,1.835,0s0.743-0.859,1.602,0c0,0,0.816,1.253,2.069,0"/></g></g></svg>