<svg xmlns="http://www.w3.org/2000/svg" width="350px" height="74.7px" viewBox="0 0 350 74.7">
<g>
    <path d="M1.8,24.4h1.8v11h15.3v-11h1.8v23.8h-1.8V37.1H3.6v11.2H1.8V24.4z"/>
    <path d="M30.2,24.4h17v1.6H32v9.4h13.7v1.6H32v9.6h15.4v1.6H30.2V24.4z"/>
    <path d="M55.6,24.4h1.8v22.2h14v1.6H55.6V24.4z"/>
    <path d="M79.2,24.4h17v1.6H81v9.4h13.6v1.6H81v9.6h15.4v1.6H79.2V24.4z"/>
</g>
<g>
    <path d="M119.8,34.3L119.8,34.3c1.6,0,1.9,0,2.7-0.1c0.1,0.1,0.1,0.1,0,0.2l-0.6,0.1c-0.1,0.1-0.5,0.1-0.9,0.1
        c-0.2,0-0.6,0-1.1,0.1c-0.5,0-1.1-0.1-1.5,0h-0.5l-0.5,1.4c-0.2,0.1-0.4,0.4-0.2,0.6c0.1,0.1-0.1,0.2-0.1,0.3
        c0.1,0.2-0.1,0.5-0.2,0.6c0,0.1-0.1,0.2-0.1,0.2c0.1,0.1,0.1,0.2-0.2,0.4c-0.1,0,0,0.1,0,0.2c-0.1,0.3-0.1,0.5-0.2,0.8
        c-0.1,0.2-0.2,0.4-0.2,0.5c-0.1,0.4-0.3,0.8-0.4,1.2c-0.1,0.2-0.2,0.5-0.2,0.8c-0.1,0.5-0.3,0.9-0.4,1.4c-0.1,0.1-0.2,0.2-0.2,0.4
        c0.1,0.2,0,0.5,0,0.7c0,0.1-0.1,0.2-0.1,0.4c-0.1,0.2-0.1,0.4-0.1,0.5c-0.1,0.4-0.2,0.7-0.2,1c0,0.1-0.1,0.2-0.1,0.2
        c-0.1,0,0,0.1,0.1,0.1c-0.1,0.1-0.1,0.3-0.2,0.4c0.2,0.2,0.2,1,0,1c0.1,0.1,0.2,0.1,0.1,0.2c0.2,0.1,0.2,0.2,0.2,0.4
        c-0.1,0.3,0.1,0.6,0.1,0.9c0,0.3,0.2,0.5,0.2,0.5l0.3,0.4c0.4,0.2,0.4,0.2,0.8,0.2c0.4,0.1,0.8-0.2,0.8-0.2c0.1,0.4-0.2,0.7-0.5,1
        c-0.1,0.1-0.2,0.2-0.4,0.2h0.1c-0.6,0.1-0.8,0.1-1.3-0.3c-0.4-0.1-0.5-0.4-0.9-0.8c-0.1-0.1-0.2-0.2-0.2-0.3
        c-0.5-0.7-0.6-1.5-0.8-2.3s-0.1-1.7,0.1-2.6c-0.1-0.5,0.1-1,0.2-1.5l0.3-1.2c0.2-0.5,0.2-0.9,0.4-1.5c0-0.2,0.1-0.3,0.2-0.5h0.1
        c-0.1-0.1-0.1-0.1-0.1-0.2l1.3-4.2l0.4-1.3c-0.5,0-1.1-0.1-1.9-0.1c-0.5-0.1-1-0.2-1-0.6c0-0.1,0.1-0.4,0.3-0.5
        c0.2-0.2,0.4-0.2,0.4-0.2c0.1,0,0.2,0.1,0.2,0c0.2-0.1,0.5-0.2,0.8-0.1l0.8,0.1c0.4-0.1,0.7-0.1,0.9-0.1c0.2-0.4,0.3-0.8,0.5-1.3
        c0.1-0.4,0.3-0.8,0.5-1.2c0.1-0.4,0.4-0.9,0.5-1.4c0.2-0.5,0.3-0.9,0.5-1.4c0-0.2,0.1-0.2,0.2-0.5c0.1-0.3,0.2-0.7,0.4-1
        c0.1-0.2,0.2-0.3,0.4-0.2c0.1,0.1,0.1,0.1,0.2,0.1c0.4,0.2,0.7,0.3,0.8,0.6c0.1,0.1,0.2,0.2,0.3,0.4c0.4,0.2,0.2,0.4,0.1,0.7
        c-0.4,0.8-0.7,1.6-1.1,2.3c-0.1,0.5-0.5,1.1-0.7,1.6c-0.3,0.8-0.4,1.1-0.5,1.5c0.6,0.1,0.9,0.2,1.1,0.1c2,0.1,2.3,0.1,3.2-0.1
        c0.1-0.1,0.3-0.2,0.4-0.1c0.1,0.4-0.5,0.5-0.7,0.7l-0.1,0.1c-0.2,0-0.7,0-1,0.1c-0.2-0.1-0.7-0.1-1,0L119.8,34.3z M113.1,46.1
        l0.2-1.8c0.1-0.5,0.2-1.1,0.3-1.6c0.2-0.6,0.4-1.1,0.5-1.6c0.1-0.4,0.3-0.9,0.4-1.3c0.1-0.4,0.2-0.8,0.3-1.3
        c0.3-0.7,0.5-1.4,0.8-2.1l0.1-0.4c0.2-0.1,0.2-0.4,0.1-0.5c-0.1,0.1-0.4,0.6-0.4,0.6c-0.1,0.1-0.1,0.4-0.2,0.4
        c-0.1,0.5-0.3,1-0.4,1.5c-0.2,0.5-0.4,1-0.5,1.6l-0.4,1.2c-0.1,0.5-0.2,0.9-0.3,1.4c-0.2,0.5-0.3,1-0.4,1.5
        c-0.1,0.4-0.1,0.7-0.2,1.1c0.1,0.3,0,0.6,0,1C113.1,45.8,113.1,45.9,113.1,46.1c-0.1,0.2-0.2,0.5,0.1,0.7
        C113.3,46.5,113.2,46.3,113.1,46.1z M117,35.4l-0.2,0.4c-0.1,0.1-0.1,0.2-0.2,0.2c-0.5,1.3-0.8,2.9-1.3,4.2
        c-0.1-0.1-0.1-0.1-0.1-0.1c0-0.1,0.1-0.2-0.1-0.2c-0.1-0.4,0.3-0.6,0.2-0.9c-0.1-0.1,0.1-0.3,0.1-0.3c0.2-0.4,0.4-0.8,0.4-1.2
        c0.1-0.2,0.1-0.3,0.2-0.5c0.1-0.1,0.1-0.1,0.1-0.2v-0.4l0.2-0.5l0.4-0.5c-0.1,0-0.1,0-0.2,0.1l0.2-0.5h-0.2
        c-0.1,0.3-0.1,0.5-0.2,0.8l-0.2,0.2c-0.1,0.3-0.2,0.7-0.2,0.9c-0.2,0.2-0.3,0.5-0.3,0.7c-0.2,0.4-0.2,0.7-0.5,1.1
        c0,0.3-0.1,0.6-0.3,0.9c-0.1,0.2,0,0.4-0.2,0.6c-0.1,0.2-0.1,0.4-0.2,0.6c0.1,0.1-0.1,0.2-0.1,0.4c-0.1,0.2-0.2,0.4-0.2,0.5
        c0.1,0.4-0.1,0.7-0.3,0.9c0,0.1-0.1,0.1,0,0.1c0.1,0.2,0,0.2-0.1,0.4l0.1,0.2c-0.2,0.1-0.2,0.2-0.2,0.2c-0.1,0.4-0.1,0.6-0.2,0.9
        l0.1,0.1c-0.1,0.1,0.1,0.2-0.1,0.2c-0.1,0.1,0.1,0.2,0.1,0.4c0,0.1,0.1,0.1,0.1,0.1c-0.3,0.2-0.2,0.5-0.2,0.8c-0.1,0.2,0,0.5,0,0.7
        c0,0.1-0.1,0.2-0.1,0.3c0.2,0.3,0.2,0.6,0.1,0.9c0,0.1,0.1,0.2,0.1,0.2c0.1-0.1,0.1-0.1,0.1-0.1c0-0.4,0.1-0.6,0-1
        c0-0.4,0.1-0.7,0.1-1.1c0-0.2,0.1-0.4,0.1-0.5c0.1-0.1,0.1-0.2,0.1-0.4c-0.1-0.1,0.1-0.2-0.1-0.4c-0.1-0.1,0-0.2,0.2-0.3
        c-0.1,0-0.1-0.1-0.1-0.1c0.1-0.1,0.1-0.1,0.1-0.2c0-0.4,0-0.7,0.1-1L114,43c0.1-0.2,0.1-0.4,0.2-0.6c0-0.1-0.1-0.2,0-0.2
        c0.1-0.3,0.2-0.6,0.2-0.9h0.1c0-0.1-0.1-0.1-0.1-0.2c0.1-0.1,0.2-0.1,0.2-0.1c-0.2-0.1-0.2-0.1,0-0.2l-0.1-0.1
        c-0.1-0.2,0.3-0.2,0.4-0.5c0,0.1,0.1,0.1,0.1,0.2c-0.2,0.4-0.4,0.9-0.4,1.4c-0.1,0.2-0.2,0.5-0.2,0.7c-0.1,0.2-0.1,0.2-0.1,0.4
        c0.1,0,0.1,0,0.1,0.1c-0.1,0-0.1,0.1-0.1,0.1c-0.2,0.4-0.2,0.8-0.3,1.1c-0.1,0.2-0.2,0.5-0.1,0.8h0.2c-0.1-0.1-0.1-0.2-0.1-0.4
        c0.2-0.5,0.2-0.9,0.4-1.3c0.1-0.1,0.1-0.1,0.2-0.1c0.1-0.1,0.2-0.1,0.2-0.1c-0.1-0.1-0.1-0.2-0.2-0.2c0.1-0.1,0.1-0.1,0.1-0.2
        c0.1,0.1,0.2,0.1,0.2,0.2c0.2-0.2-0.2-0.2-0.2-0.3c0.1-0.1,0.1-0.2,0.2-0.2c0.1-0.2,0.1-0.5,0.2-0.7v-0.1c0.2-0.1,0.1-0.2,0.1-0.4
        l0.2-0.1c0-0.1-0.1-0.2,0-0.3c0.1-0.1,0.1-0.2,0.1-0.3l0.2,0.2c0-0.1,0-0.2,0.1-0.3h-0.2c0.1-0.2,0.2-0.4,0.2-0.6
        c0.1,0.1,0.1,0.1,0.2,0.2c0-0.2,0.1-0.4,0.1-0.6c0.1-0.2,0.1-0.4-0.1-0.4c0.1-0.1,0.1-0.2,0.1-0.2c-0.1-0.4,0.3-0.7,0.4-1.1
        c0.1-0.5,0.4-0.9,0.4-1.4C116.6,36.4,116.9,35.7,117,35.4z M114.4,45.4c-0.2,0-0.1,0.4-0.4,0.4l-0.1-0.1c0,0,0,0.1-0.1,0.1
        c0,0.2-0.1,0.3-0.1,0.5s0,0.4-0.1,0.6l0.1-0.1l0.4-0.4c-0.1,0.1-0.1,0.2-0.1,0.2c0.1,0,0.1,0,0.2,0.1c0.1-0.2,0.1-0.4,0.1-0.5h-0.1
        v0.1c0,0.1-0.1,0.1-0.2,0.1c0.1-0.1-0.1-0.2,0.1-0.2c0.1-0.1,0.1-0.1,0.3-0.3C114.3,45.8,114.4,45.6,114.4,45.4z M114.3,47.4
        L114.3,47.4c0-0.1,0-0.1-0.1-0.2c-0.1,0.2-0.1,0.4-0.2,0.5c0.1,0.1,0.2,0.2,0.2,0.4h0.1c0.1-0.1,0.1-0.3,0.1-0.4
        C114.3,47.6,114.3,47.5,114.3,47.4z M115.4,41.2h-0.2c-0.1,0.2-0.1,0.5-0.2,0.7c0.2-0.1,0.3-0.2,0.3-0.4
        C115.4,41.5,115.3,41.3,115.4,41.2z M117.3,34.7c0,0.1-0.1,0.1-0.1,0.1l-0.2,0.5h0.1l0.4-0.5C117.4,34.7,117.4,34.7,117.3,34.7z"/>
    <path d="M120.2,48.2c0,0-0.1-0.1-0.2-0.1l-0.2,0.2c-0.2-0.4-0.4-0.8-0.2-1.4l0.4-1.8c0.1-0.5,0.2-0.9,0.2-1.4
        c0.1-0.6,0.3-1.2,0.4-1.8c0.1-0.6,0.2-1.1,0.3-1.8c0.1-0.1,0.1-0.2,0.1-0.3c0.1-0.1,0.2-0.2,0.4-0.2c0.4-0.2,0.8,0.1,0.9,0.7
        c0.1,0.4,0.2,0.7,0.1,1.1c0,0.1-0.1,0.2-0.1,0.5c0.1-0.2,0.3-0.3,0.4-0.4c0.2-0.4,0.5-0.6,0.8-0.9c0.4-0.5,0.8-0.9,1.3-1.2
        c0.5-0.4,1.1-0.4,1.6-0.1c0.2,0.2,0.4,0.4,0.6,0.5c0.1,0.1,0.1,0.1,0.2,0.1c0.2,0.1,0.2,0.3,0.4,0.5l-0.1,0.2c0,0-0.2,0.1-0.8-0.1
        c-0.2,0-0.5-0.1-0.8,0.2c-0.2,0.2-0.4,0.3-0.7,0.5c-0.1,0.1-0.2,0.2-0.3,0.4c-0.2,0.2-0.5,0.4-0.7,0.6c-0.2,0.4-0.6,0.7-0.9,1.1
        c-0.3,0.4-0.6,0.8-0.9,1.3c-0.4,0.6-0.6,1.1-0.8,1.6c-0.2,0.4-0.2,0.8-0.4,1.2c-0.1,0.3-0.1,0.6-0.2,0.9c-0.1,0.5-0.2,0.6-0.6,0.5
        C120.3,48.8,120.2,48.6,120.2,48.2z M123.3,41.9C123.3,41.9,123.3,41.9,123.3,41.9c0.5-0.5,0.9-1.1,1.3-1.5
        c-0.1-0.4-0.2,0.2-0.4,0.1c-0.1,0.2-0.2,0.4-0.2,0.4c-0.4,0.1-0.6,0.6-1,0.9c-0.2,0.2-0.4,0.5-0.4,0.9
        C122.8,42.3,123.1,42.1,123.3,41.9z M124,41.9c0.2-0.1,0.4-0.4,0.6-0.6c-0.2,0.1-0.5,0.2-0.6,0.4c-0.2,0.2-0.4,0.4-0.5,0.7
        C123.8,42.5,123.8,42,124,41.9z"/>
    <path d="M128.3,48.2c-0.1-0.1-0.4-0.3-0.7-0.4c-0.4-0.5-0.5-1.1-0.4-1.7c0.1-0.3,0.2-0.5,0.3-0.8c0.1-0.1,0.1-0.1,0.1-0.1
        c0.1-0.2,0.2-0.5,0.2-0.8l0.3-0.5c0.2-0.2,0.2-0.4,0.4-0.5c0.5-0.7,1-1.2,1.5-1.9c0.5-0.5,1.2-1.1,2-1.1c0.9,0.2,1.9,0.4,2,1.3
        c0.1,0.6-0.2,1-0.4,1.4c0.4-0.1,0.6-0.4,1.1-0.4c0.2,0.1,0.4,0.3,0.5,0.6c0,0,0.1,0.5-0.1,0.8c-0.1,0.1-0.1,0.1-0.1,0.2
        c-0.1,0.6-0.1,1.2,0.1,1.8c0.1,0.2,0.2,0.4,0.4,0.5c0.1,0.1,0.2,0.1,0.3,0c0.1-0.1,0.3-0.1,0.5-0.1c0.7-0.3,1.3-0.8,1.9-1.2
        c0.5-0.4,1.2-0.7,1.8-1.1c1-0.6,0.9-0.5,1.9-1.2c0.3-0.2,0.6-0.5,1.1-0.7l0.1,0.1l-0.4,0.5c0.1,0.2,0.1,0.2,0.4,0.1
        c0-0.1,0-0.2,0.2-0.2c-0.4,0.6-1.1,1-1.6,1.3c-0.2,0.2-0.5,0.3-0.6,0.4c-0.1,0.1-0.3,0.4-0.5,0.4c-0.1,0.1-0.2,0.1-0.3,0.1
        c0,0,0-0.1-0.1-0.1c0.1,0,0.2-0.1,0.2-0.2c0.2-0.1,0.2-0.2,0.2-0.4c0-0.1-0.1-0.1-0.1-0.1c-0.4,0.2-0.5,0.4-0.8,0.6
        c-0.5,0.2-0.9,0.5-1.3,0.8c-0.1,0.1-0.2,0.2-0.4,0.2v0.1c0.1-0.1,0.2-0.1,0.4-0.1c0.2-0.1,0.3-0.1,0.4-0.1c0-0.1-0.1-0.1-0.1-0.1
        c0.3-0.1,0.5-0.1,0.8-0.3c0.2-0.2,0.5-0.2,0.7-0.4c0,0.1-0.1,0.2-0.2,0.3c-0.4,0.2-0.7,0.4-1,0.6c-0.1,0.1-0.2,0.1-0.2,0.2
        c-0.1,0.1-0.2,0.1-0.3,0.2c0.1,0.1,0.2,0.1,0.3,0.1l-0.1,0.1c-0.1,0.1-0.2,0.1-0.3,0.1v0.2c0.2-0.1,0.5-0.2,0.7-0.4v0.1
        c-0.2,0.2-0.5,0.4-0.7,0.5c-0.4,0.4-0.7,0.5-1.1,0.8c-0.2,0.1-0.4,0.1-0.6,0.2c-0.1,0.1-0.3,0.1-0.4,0.1c-0.1,0-0.2,0.1-0.4,0.1
        c-0.2,0-0.5,0.1-0.7,0.1c-0.1-0.1-0.4-0.1-0.4-0.1c-0.1-0.1-0.2-0.2-0.4-0.2c-0.2-0.4-0.5-0.5-0.7-0.9c-0.2-0.2-0.2-0.4-0.4-0.5
        c-0.1-0.1-0.1-0.1-0.1-0.2c-0.3,0.2-0.3,0.6-0.6,0.6c-0.1,0.1-0.1,0.2-0.2,0.2c-0.5,0.4-1.2,0.9-1.9,1.2c-0.7,0.4-1.4,0.4-2,0.1
        C128.6,48.2,128.5,48.2,128.3,48.2z M130.2,46.8c0.5-0.2,0.9-0.5,1.3-1c0.6-0.7,0.9-1.2,1.6-1.9c0.1,0,0.2-0.2,0.2-0.2h-0.1
        c-0.9-0.1-0.6-1.9-0.5-2c-1.3,0.2-2.7,2.2-3.2,3c-0.4,0.7-0.8,1.4-1,2.2C129,47,129.8,47,130.2,46.8z M141.2,44.3
        c0-0.2,0.1-0.2,0.2-0.2c0.1-0.1,0.2-0.1,0.4-0.2c0.1-0.1,0.2-0.1,0.4-0.1v-0.2c0.1-0.1,0.1-0.1,0.2-0.2c0-0.1,0-0.1-0.1-0.1
        c-0.1,0.1-0.3,0.2-0.5,0.4c-0.3,0.2-0.8,0.5-0.9,0.6c0.1,0.1,0.2,0.1,0.4,0.2C141.2,44.4,141.2,44.3,141.2,44.3z"/>
    <path d="M142.1,51.2c0-0.1-0.2-0.5-0.3-0.5c-0.3,0-0.2-0.4-0.4-0.7c-0.1-0.2-0.1-0.5-0.1-0.5c0-0.7,0.1-1.3,0.1-1.9
        c0.1-0.4,0.2-0.7,0.3-1c0-0.5,0.2-0.9,0.4-1.2c0-0.4,0.1-0.9,0.2-1.3c0.1-0.4,0.1-0.6,0.2-1l0.4-1.6c0.2-0.1,0.6,0.2,0.9,0.4
        c0.1,0.1,0,0.2,0.1,0.3c0,0.1,0.1,0.2,0.2,0.2c0.1,0.8-0.2,1.7-0.3,2.5c-0.2,0.9-0.4,1.7-0.7,2.6c-0.1,0.6-0.1,1.1-0.2,1.8
        c0.4,0,0.8-0.4,1.1-0.6c0.4-0.3,0.7-0.7,1-1.1c0.2-0.2,0.5-0.6,0.7-0.9c0.5-0.6,1-1.2,1.3-1.9c0.4-0.6,0.7-1.2,1.1-1.9
        c0.1-0.4,0.4-0.8,0.5-1.2c0.1-0.2,0.2-0.4,0.4-0.4c0.1,0,0.1,0.2,0.2,0.3c0.1,0.1,0.1,0.2,0.1,0.2c0.2,0.3,0.2,0.8,0.1,1.2
        c-0.4,0.5-0.8,1.1-1.1,1.6c-0.2,0.2-0.2,0.5-0.2,0.7c0.1,0,0.1,0,0.1,0.1c0.1-0.2,0.2-0.5,0.4-0.7h0.1c-0.1,0.1-0.2,0.4-0.2,0.5
        c0.1,0,0.1,0,0.1,0.1c0.1-0.2,0.2-0.5,0.4-0.8c-0.1,0.6-0.2,1-0.4,1c-0.1,0.2-0.2,0.5-0.3,0.7c-0.1,0.3-0.2,0.6-0.5,0.8
        c-0.1,0-0.1,0.1-0.1,0.1c-0.1,0.5-0.4,0.9-0.6,1.3c-0.2,0.3-0.5,0.5-0.7,0.8c-0.3,0.4-0.6,0.8-1,1c-0.2,0.4-0.5,0.7-0.8,0.9
        c-0.5,0.3-1,0.4-1.4,0.6L142.1,51.2z M146.2,46.4c-0.4,0.4-0.7,0.8-1,1.1c-0.1,0.1,0.1,0.2,0.1,0.3c0.1,0.1,0.1,0.1,0.1,0.1
        C145.8,47.5,146.1,47.1,146.2,46.4z"/>
    <path d="M158.9,47c0.5-0.2,1-0.6,1.6-0.9c-0.1,0.1-0.1,0.2-0.1,0.2c-0.2,0.2-0.4,0.4-0.5,0.5l-0.8,0.6c-0.4,0.2-0.6,0.4-0.9,0.5
        c-0.4,0.2-0.7,0.5-1.1,0.7c-0.2,0.1-0.5,0.1-0.8,0.2c-0.2,0-0.2,0.1-0.4,0.1c-0.2,0.1-0.4,0.1-0.6,0.2c-0.4,0.1-0.6,0.2-1,0.1
        c-0.4-0.1-0.9-0.1-1.3-0.2c-0.4-0.1-0.5-0.2-1-0.5c-0.1-0.1-0.2-0.1-0.2-0.2c-0.3-0.2-0.5-0.5-0.7-0.8c-0.1-0.1-0.1-0.1-0.2-0.5
        c-0.2-0.5-0.2-0.8-0.2-1.1c0.1-0.8,0.2-1.6,0.7-2.5c0.2-0.2,0.4-0.5,0.5-0.8c0.4-0.5,0.8-0.9,1.1-1.3c0.4-0.4,0.8-0.6,1.4-0.7
        c0.1,0,0.2-0.1,0.4-0.1c0.4-0.2,0.8,0.1,1.1,0.3c0.4,0.2,0.7,0.4,1,0.7c0.4,0.2,0.5,0.9,0.4,1.3c-0.1,0.2-0.2,0.4-0.4,0.5
        c-0.4,0.4-0.8,0.8-1.1,1.2c-0.1,0.1-0.4,0.2-0.4,0.3c-0.1,0.3-0.4,0.4-0.5,0.4l-0.3,0.2c0.1,0,0.1,0.1,0.1,0.1
        c-0.1,0.1-0.2,0.1-0.4,0.2c-0.1,0.1-0.1,0.2-0.1,0.2c-0.3,0.2-0.6,0.3-0.9,0.5c-0.1,0.1-0.2,0.2-0.3,0.2c-0.4,0.2-0.5,0.2-0.8,0.4
        c0.2,0.5,0.2,0.6,0.6,0.7c0.5-0.1,1.1,0,1.6-0.1c0.4-0.1,0.8-0.2,1.1-0.4c0.3-0.1,0.6-0.3,1-0.4c0.2-0.1,0.4-0.1,0.6-0.2
        c0.5-0.3,1-0.5,1.4-0.8l0.1-0.1l0.1,0.1c-0.1,0.1-0.1,0.2-0.2,0.2c0.1,0.1,0.1,0.1,0.1,0.1c0.1,0,0.2-0.1,0.4-0.1
        c0.1,0.1,0.1,0.1,0,0.1c-0.2,0.1-0.4,0.3-0.5,0.5c0.1,0.1,0.4,0.1,0.5,0.2C159,46.9,159,46.9,158.9,47
        C158.9,46.9,158.9,47,158.9,47z M152.3,45.2c0.4-0.2,0.5-0.4,0.7-0.5c0.1,0,0.2,0.1,0.2,0c0.1-0.1,0.4-0.2,0.5-0.4
        c-0.1,0-0.2,0.1-0.3,0.1c0.2-0.2,0.4-0.5,0.7-0.5c-0.1,0.1-0.2,0.2-0.3,0.4c0,0,0,0.1,0.1,0.1c0.4-0.2,0.7-0.5,1.1-0.8l-0.1-0.1
        c-0.1,0.1-0.2,0.2-0.4,0.2c-0.1,0.1-0.2,0.2-0.4,0.2c0.1-0.1,0.1-0.1,0.1-0.1c0.4-0.4,0.8-0.6,1.1-1c0.2-0.2,0.4-0.5,0.6-0.8
        c0.1-0.2-0.1-0.6-0.2-0.5c-0.4,0.2-0.8,0.2-1.1,0.4c-0.4,0.3-0.8,0.5-1.1,0.9c-0.4,0.5-0.6,1-0.9,1.5
        C152.5,44.6,152.4,44.9,152.3,45.2z M156,43c0.1-0.2,0.4-0.5,0.5-0.8l-0.1-0.4C156.1,42.3,155.9,42.6,156,43z M158.6,46.1
        c-0.1-0.1-0.4,0-0.7,0.4C158.2,46.4,158.4,46.3,158.6,46.1z M158.9,45.6c0.4-0.2,0.8-0.4,1.2-0.7C160.1,45.1,159.8,45.2,158.9,45.6
        L158.9,45.6z M161.4,44.4L161.4,44.4C161.4,44.4,161.5,44.4,161.4,44.4C161.5,44.5,161.5,44.5,161.4,44.4c0,0.1-0.2,0.3-0.4,0.4
        l0.1,0.2c-0.2,0.1-0.2,0.2-0.1,0.3c-0.2,0.1-0.4,0.1-0.5,0.4c0,0,0,0.1-0.1,0.1c-0.3,0-0.5,0.3-0.7,0.5c-0.1,0.1-0.3,0.2-0.5,0.3
        c-0.1,0.1-0.2-0.1-0.2-0.1c-0.1-0.1-0.1-0.2-0.1-0.2c0-0.1,0.1-0.1,0.1-0.1c0.2,0.2,0.6-0.2,0.9-0.4l0.3-0.2
        c0.2-0.1,0.2-0.2,0.1-0.4c-0.3,0.2-0.7,0.5-1,0.8c-0.1-0.1-0.2-0.1-0.3-0.1c0.3-0.2,1-0.5,1.2-1c0.1-0.1,0.5-0.3,0.7-0.4l0.3,0.1
        c0.1-0.1,0.2-0.2,0.2-0.3c-0.1-0.1-0.1-0.1-0.2-0.1l0.1-0.1c0.1,0,0.2,0,0.5-0.1c-0.1-0.1-0.1-0.1-0.1-0.2l0.2-0.2l-0.1-0.1
        l-0.2,0.1h-0.1l0.7-0.5l0.1,0.3c0,0,0.1,0,0.1,0.1c-0.1,0.1-0.2,0.2-0.4,0.3C161.9,44.1,161.7,44.3,161.4,44.4z"/>
    <path d="M173.7,24.4l0.3,0.1c0,0.1-0.1,0.2-0.1,0.4c-0.1-0.1-0.1-0.1-0.1-0.2c-0.1,0.1-0.1,0.1-0.1,0.1c0.1,0.1,0.2,0.3,0.2,0.4
        c-0.4,0-0.3,0.4-0.4,0.5c-0.1,0.2-0.1,0.5-0.2,0.6c0.1,0.1,0.4,0.2,0.4,0.2c-0.1,0.2-0.2,0.4-0.2,0.7c0.2,0.2-0.2,0.4-0.2,0.7
        l0.1-0.1l0.1,0.1c0.1,0.1,0.1,0.2-0.1,0.2c-0.2,0.1-0.2,0.2-0.4,0.4h0.4c-0.2,0.2-0.4,0.5-0.5,0.7c-0.1,0.1-0.2,0.3-0.2,0.4
        c-0.1,0.1,0,0.2,0.1,0.4c0.1,0.2-0.1,0.5-0.1,0.8c-0.1-0.1-0.1-0.1-0.1-0.1c-0.1-0.1-0.1-0.1-0.1-0.2c-0.1,0.1-0.1,0.2-0.1,0.2
        l0.1,0.1v0.1c-0.2-0.1-0.3-0.1-0.4,0.2c0,0.1-0.1,0.2-0.2,0.3c-0.1,0.1-0.1,0.1-0.1,0.2c0.1-0.1,0.2-0.2,0.3-0.4
        c0.1,0.2-0.1,0.6-0.4,0.6c-0.1,0.1-0.2,0-0.2,0.1c-0.4,0.8-0.7,1.5-1,2.1c0.1,0.1,0.1,0.2,0,0.2c-0.2,0.5-0.6,1-0.9,1.4
        c-0.1,0.1-0.1,0.3-0.3,0.1c-0.1-0.1-0.1,0.1-0.2,0.1c0.1,0,0.2,0,0.3,0.1c-0.2,0.4-0.5,0.6-0.7,1c-0.1-0.1-0.1-0.1-0.2-0.1
        l-0.1,0.1c0,0.1,0.1,0.2,0.1,0.2c-0.1,0-0.1,0-0.2,0.1h-0.1c-0.2,0.4-0.7,0.4-0.5,0.9c-0.2,0.1-0.4,0-0.6,0
        c-0.2,0.2,0.2,0.2,0.2,0.5c-0.1-0.1-0.1,0-0.1,0c-0.2,0.2-0.2,0.4-0.4,0.5L166,40c-0.5,0.5-1.1,1.2-1.7,1.7
        c-0.2,0.4-0.4,1.1-0.5,1.7c-0.1,0.7-0.2,1.8-0.2,2.5c0.1,1.1,0.2,2.1,0.5,2.9c0.2,0.4,0.5,1,0.8,1.1c0.7,0.3,1.1,0,1.8-0.5
        c0.7-0.3,0.2,1.4-0.7,1.6c-0.5,0.1-0.9,0.2-1.7-0.2c-0.2-0.1-0.5-0.4-0.6-0.5c-0.2-0.2-0.4-0.5-0.6-0.8c-0.2-0.3-0.3-0.6-0.5-1
        c-0.1-0.4-0.2-0.8-0.3-1.3c-0.1-1.1-0.1-1.8,0-3c0.1-0.5,0.1-1,0.4-2.6l0.2-1.4c0-0.2,0-0.2,0.1-0.6c0.1-0.5,0.2-0.7,0.3-1.3
        c0.1-0.5,0.2-1.1,0.4-1.6c0.2-0.6,0.4-1.3,0.6-1.9c0.2-0.3,0.3-0.7,0.5-1c0.1-0.2,0.1-0.5,0.2-0.8c0.1-0.1,0.1-0.1,0.1-0.2l0.2,0.6
        c0.1-0.2,0.2-0.4,0.2-0.5c0.1-0.4,0.4-0.8,0.5-1.2c0.1-0.2,0.2-0.5,0.2-0.7c-0.1-0.3,0-0.3,0.2-0.4c0.1,0,0.1-0.1,0.1-0.1
        c0.2-0.4,0.3-0.7,0.5-1c-0.2-0.1-0.4-0.1-0.4,0.2c-0.1,0.1-0.2,0.3-0.2,0.4c-0.1,0.1-0.1,0.2-0.1,0.2c-0.1-0.1-0.2-0.1-0.2-0.1
        c0.1-0.1,0.2-0.1,0.2-0.2c0.1-0.2,0.2-0.4,0.2-0.6c0.1-0.3,0.2-0.6,0.3-1c0.1-0.2,0.3-0.5,0.4-0.7c0.1-0.1,0.1-0.1,0.2-0.2
        c0.2,0.1,0.3,0.2,0.3,0.4c-0.1,0.2-0.3,0.4-0.5,0.5c-0.1,0.1-0.1,0.1-0.1,0.2c0.1,0,0.1,0,0.2,0.1c-0.1,0.4-0.1,0.4-0.1,0.4
        c0.4-0.8,0.8-1.5,1.1-2.3c-0.2,0.2-0.2,0.2-0.5,0.2c-0.1,0-0.1,0.1-0.1,0.1c0-0.1,0-0.2,0.1-0.4c0.4-0.7,0.8-1.6,1.3-2.3
        c0.3-0.5,0.7-1.1,1.1-1.5c0.4-0.4,0.8-0.7,1.1-1.1c0.5-0.5,1-0.4,1.6-0.2c0.2,0.1,0.4,0.2,0.5,0.2c0.2,0.1,0.4,0.2,0.6,0.4l0.2,0.2
        c0.1,0.1,0.1,0.1,0,0.2c0.1,0.4,0.1,0.5,0.1,0.8C173.6,24,173.8,24.3,173.7,24.4z M164.3,36.3c0.1-0.6,0.2-1.1,0.6-1.6
        c-0.1,0-0.1,0.1-0.2,0.1c0.1-0.2,0-0.5,0.3-0.4c0.1,0.1,0.1-0.1,0.1-0.1c0.1-0.2,0.1-0.3,0.2-0.4l-0.3-0.1c-0.9,2.2-1.4,4.2-2,6.4
        c0.1,0,0,0.4,0.1,0.4c0.1-0.2,0.1-0.5,0.1-0.8c0.2-0.8,0.6-1.8,0.8-2.7C164,36.7,164.1,36.5,164.3,36.3z M163.8,38.8
        c-0.2,0.5-0.3,1-0.4,1.6C163.7,39.8,163.8,39.3,163.8,38.8z M172.9,24.4c0.2-0.3,0.1-0.4-0.2-0.4c0,0.4,0.1,0.6,0.2,0.8
        c-0.1,0.1-0.2,0.2-0.2,0.3c-0.1,0.3-0.1,0.6-0.1,0.9c-0.1,0.2-0.1,0.5-0.4,0.8c-0.1,0.1,0,0.2,0,0.2c0,0.1,0.1,0.1,0.1,0.2h-0.1
        c-0.1,0.1-0.3,0.2-0.3,0.4c0.1,0.2,0,0.4-0.1,0.5c-0.1,0.1-0.1,0.2-0.1,0.4c-0.1,0.1-0.1,0.2-0.2,0.2c-0.2,0.5-0.4,0.8-0.4,1.2
        c-0.2,0.4-0.5,0.8-0.4,1.3c-0.1-0.2-0.1-0.2-0.2,0c0,0.1-0.1,0.1-0.1,0.2c-0.2,0.4-0.5,0.8-0.7,1.2c-0.4,0.6-0.7,1.2-1,1.8
        c-0.1,0.1-0.2,0.2-0.2,0.4c-0.1,0.1-0.2,0.3-0.3,0.4c-0.1,0.1-0.1,0.1-0.1,0.1c-0.1,0.3-0.4,0.5-0.6,0.8c-0.1,0.1-0.3,0.4-0.3,0.5
        c-0.2,0.3-0.4,0.5-0.5,0.6c-0.2,0.2-0.4,0.5-0.5,0.7c-0.4,0.4-0.8,0.8-1.1,1.2c-0.1,0.2-0.2,0.4-0.4,0.5c0.3-0.1,0.5-0.2,0.6-0.4
        c0.3-0.2,0.6-0.6,0.8-0.9c0.5-0.4,1-1,1.4-1.4l0.4-0.5c0.2-0.2,0.4-0.5,0.5-0.8c0.3-0.5,0.6-1,1-1.5c0.2-0.2,0.4-0.2,0.4-0.5
        c0.2-0.1,0.4-0.4,0.4-0.5c0.2-0.5,0.5-0.9,0.7-1.4c0.1-0.2,0.2-0.4,0.3-0.5c0.1-0.1,0.1-0.2,0.2-0.5c-0.1-0.1-0.2-0.1-0.2-0.2
        c0.2-0.1,0.2-0.1,0.4-0.1c-0.1-0.1-0.1-0.2-0.2-0.2c0.1-0.1,0.2,0,0.4-0.1c-0.1-0.1-0.2-0.1-0.2-0.2c0.2-0.1,0.4-0.2,0.5-0.3
        c0-0.1,0-0.1-0.1-0.1c-0.1,0-0.2,0-0.3-0.1c0.5-0.4,0.8-1.1,0.5-1.3c0.1-0.2,0.3-0.5,0.3-0.8c0-0.3,0.1-0.5,0.4-0.5l-0.4-0.1
        c0.1-0.1,0.1-0.1,0.1-0.1h0.2c-0.2-0.2-0.2-0.3-0.1-0.6c0.1-0.2,0-0.6,0.1-0.9C172.9,24.7,173,24.6,172.9,24.4z M165.2,33
        c-0.2-0.5,0.1-1,0.4-1C165.5,32.3,165.3,32.6,165.2,33z M165.4,36.9c-0.1,0.1-0.2,0.2-0.2,0.5c-0.1,0.2,0,0.5-0.1,0.8l1-1.1
        c0.5-0.6,1.1-1.4,1.6-2c0.4-0.4,0.6-0.8,0.9-1.1c0.4-0.5,0.6-1,0.9-1.6c0.4-0.8,0.8-1.6,1.2-2.5c0.2-0.6,0.6-1.3,0.8-2
        c0.3-0.7,0.5-1.4,0.6-2.2c0.2-0.7,0.3-1.4,0.5-2.2c-0.1,0-0.1,0-0.2-0.1l-0.3,0.2c-0.1,0.1-0.1,0.2-0.2,0.2
        c-0.4,0.4-0.8,0.8-1.1,1.2c-0.4,0.5-0.8,0.9-1,1.5c-0.2,0.5-0.6,1-0.9,1.5c-0.2,0.4-0.5,0.8-0.7,1.3c-0.2,0.4-0.4,1-0.6,1.4
        c-0.1,0.2-0.2,0.4-0.2,0.5c-0.2,0.4-0.3,0.7-0.4,1c-0.1,0.3-0.2,0.5-0.2,0.8c-0.1,0.2-0.1,0.4-0.1,0.6c-0.2,0.4-0.4,1-0.6,1.4
        C165.9,35.7,165.7,36.3,165.4,36.9z M168.4,26.3c0.1,0,0.1,0.2,0.1,0.2c-0.1-0.1-0.2-0.1-0.2-0.1v0.4h0.1c0.1-0.1,0.1-0.2,0.2-0.4
        c0.1-0.1,0.2-0.2,0.3-0.4c0.4-0.6,0.7-1.1,1.1-1.6c0.1-0.2,0.2-0.4,0.3-0.5c0-0.1-0.1-0.1-0.1-0.1c-0.2,0.2-0.3,0.4-0.4,0.5
        c-0.2,0.4-0.5,0.6-0.6,1.1c-0.1,0.1-0.2,0.1-0.2,0.2c-0.1,0.1-0.1,0.1-0.1,0.2c-0.1,0.1-0.2,0.2-0.4,0.4l-0.3,0.2
        C168.2,26.3,168.3,26.2,168.4,26.3z M170.2,34.2l-0.4-0.1c-0.2,0.4-0.5,0.8-0.7,1.1c0.4-0.1,0.4-0.8,1.1-0.6l-0.4-0.2
        c0-0.1,0-0.1,0.1-0.1C170,34.3,170,34.3,170.2,34.2L170.2,34.2z M172,30.4c-0.6,1.1-1.1,2.2-1.6,3.2h0.1c0.1-0.2,0.3-0.5,0.4-0.6
        c0.1-0.2,0.2-0.5,0.4-0.7c0.1-0.2,0.3-0.4,0.4-0.7c0.1-0.2,0.2-0.4,0.4-0.6C171.8,30.9,172,30.6,172,30.4L172,30.4z"/>
    <path d="M188.6,45.6c-0.1,0.5-0.5,1-0.6,1.4c-0.3,0.4-0.6,0.7-0.9,1.1l-0.9,0.8c-0.4,0.2-0.6,0.3-0.9,0.5c-0.1,0-0.2,0.1-0.2,0
        c-0.2-0.1-0.5-0.2-0.7-0.2c-0.2-0.1-0.3-0.1-0.4-0.4l-0.1-0.1c-0.4-0.2-0.5-0.5-0.5-1c-0.1-0.1,0.1-0.2,0.1-0.5
        c0.2,0,0.2,0.2,0.3,0.4c0,0.4,0.2,0.4,0.4,0.4c0.4-0.1,0.7-0.4,0.9-0.6c0.3-0.3,0.7-0.6,0.9-1c0.2-0.4,0.5-0.6,0.7-1.1v-0.1
        c0.1-0.2,0.2-0.3,0.2-0.4c0.1-0.4,0.3-0.7,0.2-1.1c0-0.2-0.1-0.5-0.2-0.8c-0.2-0.2-0.7-0.2-0.9,0c-0.4,0.2-0.6,0.2-0.9,0.5H185
        c-0.1,0.1-0.2,0.3-0.4,0.4c-0.2,0.2-0.4,0.4-0.7,0.5c-0.4,0.4-0.8,0.5-1.1,1c-0.4,0.5-0.8,1.1-1.2,1.5c-0.2,0.2-0.7,1.2-0.8,1.5
        h-0.2c0.1,0.1,0.1,0.1,0.1,0.2c-0.1,0.2-0.3,0.4-0.4,0.5c-0.1,0-0.1,0.2-0.1,0.2c0.1,0,0.2,0,0.2-0.1c-0.2,0.2-0.2,0.7-0.6,0.7h0.1
        c0.1,0.1,0.1,0.1,0.1,0.1c-0.1,0.3-0.1,0.5-0.2,0.8c0,0.1-0.1,0.1-0.2,0.1c0.2,0.1,0.1,0.2,0,0.5c-0.1,0.1,0.1,0.4-0.2,0.4
        c0.1,0.6-0.1,1.3-0.4,1.4C178.9,53,179,53,179,53c-0.1,0-0.1,0.1-0.2,0.1c0.1,0.1,0.1,0.1,0.1,0.1c-0.1,0.2,0,0.5-0.1,0.7
        c-0.1,0.4-0.2,0.8-0.4,1.1c-0.1,0.4-0.1,0.6-0.2,0.8c0,0.1,0,0.1,0.1,0.2c-0.1,0.1-0.2,0.2-0.5,0.3c0.2,0.1,0.2,0.2,0.2,0.4
        c-0.1,0.1-0.1,0.2-0.1,0.5c0,0-0.1,0.1-0.2,0.1l0.2,0.1c-0.2,0.1-0.2,0.2-0.4,0.3l0.1,0.1c0,0,0.1,0.1,0.2,0.1
        c-0.3,0.5-0.4,1.1-0.4,1.6c0,0.1-0.1,0.2-0.1,0.2c-0.1,0.4-0.1,0.5-0.1,0.8c0,0.1-0.1,0.2-0.1,0.4c0.1,0.1,0.1,0.7-0.2,0.9l0.2,0.1
        l-0.2,0.8c0,0,0.1,0.1,0.1,0.2c-0.1,0.4-0.2,0.8-0.2,1.2c0,0.2-0.1,0.6-0.1,0.9c0.1,0.1-0.1,0.4-0.1,0.5c-0.1,0.2-0.1,0.5-0.2,0.8
        c0,0.1-0.1,0.1-0.1,0.1c0-0.1-0.1-0.1-0.1-0.1c-0.1,0.2-0.1,0.3-0.1,0.5c-0.1,0.1-0.2,0.1-0.4,0.1c-0.2-0.1-0.4-0.2-0.5-0.5
        c0.1-0.2,0-0.4,0-0.5h-0.2c-0.1,0.1-0.1,0.2-0.1,0.4c-0.1-0.2-0.2-0.4-0.4-0.5c0.6-2.2,1-4.3,1.4-6.4c0.1,0,0.1,0.1,0.2,0.1
        c-0.2-0.4-0.1-0.8,0.2-0.9c-0.1-0.1-0.2-0.1-0.2-0.1c0.1-0.2,0.1-0.3,0.2-0.4c0.1-0.2,0.2-0.4,0.1-0.5c-0.1-0.1,0.1-0.2,0.1-0.3
        c0.1-0.2,0.2-0.4,0.3-0.6c-0.1,0.1-0.2,0.1-0.2,0.1c0.3-0.4,0.5-0.8,0.5-1.3c-0.1,0.1-0.1,0.2-0.1,0.2v-0.3c0.2,0,0.2-0.2,0.3-0.4
        l0.2-1.3c0.1-0.2,0.1-0.4,0.1-0.5c0.3-0.9,0.5-1.8,0.7-2.7c0.1-0.6,0.3-1.2,0.5-1.9c0.1-0.4,0.2-0.8,0.3-1.2
        c0.2-0.7,0.2-1.4,0.5-2.2c0.1-0.4,0.2-0.8,0.2-1.3c0.2-0.5,0.4-1.1,0.5-1.6c0.1-0.4,0.2-0.7,0.4-1.1c0.1-0.3,0.1-0.4,0.4-0.4h0.1
        c0.4-0.1,0.5,0.2,0.7,0.5l0.1,0.5c0.1,0.1,0.1,0.2-0.1,0.4c0,0.1-0.1,0.2-0.1,0.4c-0.2,0.1-0.2,0.2-0.1,0.4
        c-0.1,0.1-0.1,0.1-0.1,0.2c-0.1,0.4-0.2,0.7-0.3,1.1h-0.1c-0.1,0.4-0.2,0.6-0.2,1.6v0.1c-0.1,0.2-0.2,0.4-0.2,0.7
        c0.1-0.2,0.4-0.4,0.5-0.7c0-0.1-0.1-0.1,0.1-0.1c0.1,0,0.1-0.1,0.2-0.2c-0.1,0-0.1,0-0.2-0.1c0.1-0.1,0.2-0.2,0.4-0.2
        c0.1-0.2,0.1-0.5,0.4-0.4c0,0,0-0.1,0.1-0.2c0.3-0.1,0.5-0.4,0.5-0.5c0.1-0.1,0.2-0.2,0.3-0.2v-0.2h0.4c0.1-0.1,0.1-0.1,0.1-0.1
        c-0.1-0.2,0.2-0.2,0.2-0.2c0.2-0.4,0.7-0.5,1-0.7c0.1-0.2,0.3-0.2,0.5-0.3v-0.2c-0.2,0.1-0.5,0.1-0.7,0.2c-0.2,0.1-0.5,0.2-0.7,0.4
        c-0.4,0.3-0.8,0.6-1.2,0.9h-0.1c-0.1,0-0.1-0.1-0.1-0.1c0.1-0.1,0.2-0.1,0.2-0.2c0.1-0.1,0.2-0.1,0.2-0.2c0.1-0.2,0.1-0.2,0.1-0.2
        c0.2-0.2,0.6-0.2,0.8-0.4c0.2-0.2,0.5-0.4,0.7-0.5c0.5-0.2,0.9-0.3,1.3-0.3c0.3,0,0.7,0.1,0.9,0.2s0.4,0.1,0.6,0.2
        c0.1,0,0.1,0.1,0.1,0.2v0.1c-0.1-0.1-0.2-0.1-0.3-0.1l-0.1,0.1c0.2,0.1,0.4,0.2,0.5,0.2c0.2,0.1,0.4,0.1,0.5,0.1l0.1-0.1
        c0.1,0.1,0.4,0.4,0.5,0.6c0.1,0,0.1,0.1,0.1,0.1c0,0.2,0.1,0.4,0.1,0.5C188.7,44.6,188.8,45.1,188.6,45.6z M176.9,58.9
        c-0.1-0.1-0.2-0.1-0.2-0.1c-0.2,1.1-0.5,2-0.6,3c0.1,0,0.1,0.1,0.1,0.1c0.1-0.2,0.5-0.2,0.2-0.5c0.1-0.1,0.2-0.1,0.1-0.2
        c-0.1-0.3,0-0.5,0.1-0.8c0.1-0.1,0.1-0.3,0.2-0.7l-0.1-0.1c0.1-0.1,0.1-0.1,0.1-0.2v-0.2C176.8,59.1,176.9,59,176.9,58.9z
         M176.9,58.4c0-0.1-0.1-0.1-0.1-0.2c-0.1,0.1-0.1,0.1-0.1,0.1c-0.1,0.2-0.1,0.4-0.1,0.5h0.2C176.9,58.7,176.9,58.5,176.9,58.4z
         M177,57.7c0.1-0.1,0.1-0.2,0.2-0.2c-0.1-0.1-0.1-0.1-0.2-0.2c-0.1,0.4-0.1,0.7-0.2,1C177.1,58,177,57.8,177,57.7z M178.5,50.6
        c0,0.1-0.1,0.2-0.1,0.2c0.1,0,0.1,0,0.2,0.1c-0.1,0.1-0.1,0.1-0.2,0.1l0.2,0.2c-0.1,0-0.2,0.1-0.3,0.1v0.2
        c-0.1,0.2-0.1,0.4-0.1,0.5c-0.1,0.4-0.2,0.8-0.2,1.2c-0.1,0.5-0.4,1-0.4,1.5c-0.1,0.4-0.2,0.8-0.2,1.3l-0.1,0.1
        c-0.1,0.2-0.2,0.5-0.2,0.9c0,0.1,0.1,0.1,0.1,0.2c0.1-0.1,0.1-0.1,0.2-0.1l-0.1-0.1c0.1-0.2,0.2-0.4,0.2-0.6
        c0.1-0.2,0.1-0.5,0.2-0.8c0-0.2,0-0.5,0.1-0.7c0.1-0.2,0.2-0.4,0.2-0.6h-0.1c0.1-0.1,0.1-0.2,0.1-0.3c0.1-0.1,0.1-0.1,0.1-0.2
        s0-0.1-0.1-0.1c0.1-0.1,0.2-0.1,0.4-0.1v-0.1h-0.4c0.1-0.2,0.1-0.3,0.1-0.4c0.1,0,0.1,0,0.2,0.1c-0.1-0.2-0.1-0.4-0.1-0.6l0.3-0.1
        c-0.1-0.1-0.2-0.1-0.2-0.1c0.1-0.1,0.2-0.1,0.2-0.2c0.1-0.4,0.1-0.8,0.2-1.1C178.7,50.8,178.7,50.8,178.5,50.6z M177.3,58.1
        c-0.2,0.1-0.3,0.7-0.2,0.9c0.1-0.1,0.1-0.2,0.1-0.4C177.3,58.5,177.3,58.4,177.3,58.1z M178.2,54.2c-0.2,0.2-0.2,0.7-0.1,0.8
        C178,54.7,178.4,54.4,178.2,54.2z M178.2,57.2C178.3,57.2,178.3,57.3,178.2,57.2C178.3,57.3,178.2,57.3,178.2,57.2z M179.2,48.6
        C179.2,48.6,179.1,48.6,179.2,48.6c-0.2,0.1-0.3,0.2-0.3,0.3c0,0.2,0,0.3,0.1,0.4c-0.2,0-0.1,0.1-0.1,0.2c-0.1,0.2-0.2,0.3-0.2,0.4
        c0.1,0.2,0.1,0.2,0.1,0.2c-0.1,0-0.1,0.1-0.1,0.1c0.1,0.1,0.1,0.1,0.1,0.1c0.1,0.1,0.1,0,0.1-0.1c0.1-0.2,0.2-0.5,0.2-0.7l0.1-0.7
        C179.1,48.9,179.2,48.8,179.2,48.6z M179.4,47.4h-0.1c-0.1,0.2-0.1,0.5-0.2,0.7c0,0.1,0,0.2-0.1,0.3h0.1
        C179.3,48.1,179.4,47.7,179.4,47.4z"/>
    <path d="M202.9,24.4l0.3,0.1c0,0.1-0.1,0.2-0.1,0.4c-0.1-0.1-0.1-0.1-0.1-0.2c-0.1,0.1-0.1,0.1-0.1,0.1c0.1,0.1,0.2,0.3,0.2,0.4
        c-0.4,0-0.3,0.4-0.4,0.5c-0.1,0.2-0.1,0.5-0.2,0.6c0.1,0.1,0.4,0.2,0.4,0.2c-0.1,0.2-0.2,0.4-0.2,0.7c0.2,0.2-0.2,0.4-0.2,0.7
        l0.1-0.1l0.1,0.1c0.1,0.1,0.1,0.2-0.1,0.2c-0.2,0.1-0.2,0.2-0.4,0.4h0.4c-0.2,0.2-0.4,0.5-0.5,0.7c-0.1,0.1-0.2,0.3-0.2,0.4
        c-0.1,0.1,0,0.2,0.1,0.4c0.1,0.2-0.1,0.5-0.1,0.8c-0.1-0.1-0.1-0.1-0.1-0.1c-0.1-0.1-0.1-0.1-0.1-0.2c-0.1,0.1-0.1,0.2-0.1,0.2
        l0.1,0.1v0.1c-0.2-0.1-0.3-0.1-0.4,0.2c0,0.1-0.1,0.2-0.2,0.3c-0.1,0.1-0.1,0.1-0.1,0.2c0.1-0.1,0.2-0.2,0.3-0.4
        c0.1,0.2-0.1,0.6-0.4,0.6c-0.1,0.1-0.2,0-0.2,0.1c-0.4,0.8-0.7,1.5-1,2.1c0.1,0.1,0.1,0.2,0,0.2c-0.2,0.5-0.6,1-0.9,1.4
        c-0.1,0.1-0.1,0.3-0.3,0.1c-0.1-0.1-0.1,0.1-0.2,0.1c0.1,0,0.2,0,0.3,0.1c-0.2,0.4-0.5,0.6-0.7,1c-0.1-0.1-0.1-0.1-0.2-0.1
        l-0.1,0.1c0,0.1,0.1,0.2,0.1,0.2c-0.1,0-0.1,0-0.2,0.1h-0.1c-0.2,0.4-0.7,0.4-0.5,0.9c-0.2,0.1-0.4,0-0.6,0
        c-0.2,0.2,0.2,0.2,0.2,0.5c-0.1-0.1-0.1,0-0.1,0c-0.2,0.2-0.2,0.4-0.4,0.5l-0.8,0.8c-0.5,0.5-1.1,1.2-1.7,1.7
        c-0.2,0.4-0.4,1.1-0.5,1.7c-0.1,0.7-0.2,1.8-0.2,2.5c0.1,1.1,0.2,2.1,0.5,2.9c0.2,0.4,0.5,1,0.8,1.1c0.7,0.3,1.1,0,1.8-0.5
        c0.7-0.3,0.2,1.4-0.7,1.6c-0.5,0.1-0.9,0.2-1.7-0.2c-0.2-0.1-0.5-0.4-0.6-0.5c-0.2-0.2-0.4-0.5-0.6-0.8c-0.2-0.3-0.3-0.6-0.5-1
        c-0.1-0.4-0.2-0.8-0.3-1.3c-0.1-1.1-0.1-1.8,0-3c0.1-0.5,0.1-1,0.4-2.6l0.2-1.4c0-0.2,0-0.2,0.1-0.6c0.1-0.5,0.2-0.7,0.3-1.3
        c0.1-0.5,0.2-1.1,0.4-1.6c0.2-0.6,0.4-1.3,0.6-1.9c0.2-0.3,0.3-0.7,0.5-1c0.1-0.2,0.1-0.5,0.2-0.8c0.1-0.1,0.1-0.1,0.1-0.2l0.2,0.6
        c0.1-0.2,0.2-0.4,0.2-0.5c0.1-0.4,0.4-0.8,0.5-1.2c0.1-0.2,0.2-0.5,0.2-0.7c-0.1-0.3,0-0.3,0.2-0.4c0.1,0,0.1-0.1,0.1-0.1
        c0.2-0.4,0.3-0.7,0.5-1c-0.2-0.1-0.4-0.1-0.4,0.2c-0.1,0.1-0.2,0.3-0.2,0.4c-0.1,0.1-0.1,0.2-0.1,0.2c-0.1-0.1-0.2-0.1-0.2-0.1
        c0.1-0.1,0.2-0.1,0.2-0.2c0.1-0.2,0.2-0.4,0.2-0.6c0.1-0.3,0.2-0.6,0.3-1c0.1-0.2,0.3-0.5,0.4-0.7c0.1-0.1,0.1-0.1,0.2-0.2
        c0.2,0.1,0.3,0.2,0.3,0.4c-0.1,0.2-0.3,0.4-0.5,0.5c-0.1,0.1-0.1,0.1-0.1,0.2c0.1,0,0.1,0,0.2,0.1c-0.1,0.4-0.1,0.4-0.1,0.4
        c0.4-0.8,0.8-1.5,1.1-2.3c-0.2,0.2-0.2,0.2-0.5,0.2c-0.1,0-0.1,0.1-0.1,0.1c0-0.1,0-0.2,0.1-0.4c0.4-0.7,0.8-1.6,1.3-2.3
        c0.3-0.5,0.7-1.1,1.1-1.5c0.4-0.4,0.8-0.7,1.1-1.1c0.5-0.5,1-0.4,1.6-0.2c0.2,0.1,0.4,0.2,0.5,0.2c0.2,0.1,0.4,0.2,0.6,0.4l0.2,0.2
        c0.1,0.1,0.1,0.1,0,0.2c0.1,0.4,0.1,0.5,0.1,0.8C202.8,24,203,24.3,202.9,24.4z M193.4,36.3c0.1-0.6,0.2-1.1,0.6-1.6
        c-0.1,0-0.1,0.1-0.2,0.1c0.1-0.2,0-0.5,0.3-0.4c0.1,0.1,0.1-0.1,0.1-0.1c0.1-0.2,0.1-0.3,0.2-0.4l-0.3-0.1c-0.9,2.2-1.4,4.2-2,6.4
        c0.1,0,0,0.4,0.1,0.4c0.1-0.2,0.1-0.5,0.1-0.8c0.2-0.8,0.6-1.8,0.8-2.7C193.2,36.7,193.3,36.5,193.4,36.3z M193,38.8
        c-0.2,0.5-0.3,1-0.4,1.6C192.8,39.8,192.9,39.3,193,38.8z M202.1,24.4c0.2-0.3,0.1-0.4-0.2-0.4c0,0.4,0.1,0.6,0.2,0.8
        c-0.1,0.1-0.2,0.2-0.2,0.3c-0.1,0.3-0.1,0.6-0.1,0.9c-0.1,0.2-0.1,0.5-0.4,0.8c-0.1,0.1,0,0.2,0,0.2c0,0.1,0.1,0.1,0.1,0.2h-0.1
        c-0.1,0.1-0.3,0.2-0.3,0.4c0.1,0.2,0,0.4-0.1,0.5c-0.1,0.1-0.1,0.2-0.1,0.4c-0.1,0.1-0.1,0.2-0.2,0.2c-0.2,0.5-0.4,0.8-0.4,1.2
        c-0.2,0.4-0.5,0.8-0.4,1.3c-0.1-0.2-0.1-0.2-0.2,0c0,0.1-0.1,0.1-0.1,0.2c-0.2,0.4-0.5,0.8-0.7,1.2c-0.4,0.6-0.7,1.2-1,1.8
        c-0.1,0.1-0.2,0.2-0.2,0.4c-0.1,0.1-0.2,0.3-0.3,0.4c-0.1,0.1-0.1,0.1-0.1,0.1c-0.1,0.3-0.4,0.5-0.6,0.8c-0.1,0.1-0.3,0.4-0.3,0.5
        c-0.2,0.3-0.4,0.5-0.5,0.6c-0.2,0.2-0.4,0.5-0.5,0.7c-0.4,0.4-0.8,0.8-1.1,1.2c-0.1,0.2-0.2,0.4-0.4,0.5c0.3-0.1,0.5-0.2,0.6-0.4
        c0.3-0.2,0.6-0.6,0.8-0.9c0.5-0.4,1-1,1.4-1.4l0.4-0.5c0.2-0.2,0.4-0.5,0.5-0.8c0.3-0.5,0.6-1,1-1.5c0.2-0.2,0.4-0.2,0.4-0.5
        c0.2-0.1,0.4-0.4,0.4-0.5c0.2-0.5,0.5-0.9,0.7-1.4c0.1-0.2,0.2-0.4,0.3-0.5c0.1-0.1,0.1-0.2,0.2-0.5c-0.1-0.1-0.2-0.1-0.2-0.2
        c0.2-0.1,0.2-0.1,0.4-0.1c-0.1-0.1-0.1-0.2-0.2-0.2c0.1-0.1,0.2,0,0.4-0.1c-0.1-0.1-0.2-0.1-0.2-0.2c0.2-0.1,0.4-0.2,0.5-0.3
        c0-0.1,0-0.1-0.1-0.1c-0.1,0-0.2,0-0.3-0.1c0.5-0.4,0.8-1.1,0.5-1.3c0.1-0.2,0.3-0.5,0.3-0.8c0-0.3,0.1-0.5,0.4-0.5l-0.4-0.1
        c0.1-0.1,0.1-0.1,0.1-0.1h0.2c-0.2-0.2-0.2-0.3-0.1-0.6c0.1-0.2,0-0.6,0.1-0.9C202.1,24.7,202.1,24.6,202.1,24.4z M194.4,33
        c-0.2-0.5,0.1-1,0.4-1C194.6,32.3,194.5,32.6,194.4,33z M194.6,36.9c-0.1,0.1-0.2,0.2-0.2,0.5c-0.1,0.2,0,0.5-0.1,0.8l1-1.1
        c0.5-0.6,1.1-1.4,1.6-2c0.4-0.4,0.6-0.8,0.9-1.1c0.4-0.5,0.6-1,0.9-1.6c0.4-0.8,0.8-1.6,1.2-2.5c0.2-0.6,0.6-1.3,0.8-2
        c0.3-0.7,0.5-1.4,0.6-2.2c0.2-0.7,0.3-1.4,0.5-2.2c-0.1,0-0.1,0-0.2-0.1l-0.3,0.2c-0.1,0.1-0.1,0.2-0.2,0.2
        c-0.4,0.4-0.8,0.8-1.1,1.2c-0.4,0.5-0.8,0.9-1,1.5c-0.2,0.5-0.6,1-0.9,1.5c-0.2,0.4-0.5,0.8-0.7,1.3c-0.2,0.4-0.4,1-0.6,1.4
        c-0.1,0.2-0.2,0.4-0.2,0.5c-0.2,0.4-0.3,0.7-0.4,1c-0.1,0.3-0.2,0.5-0.2,0.8c-0.1,0.2-0.1,0.4-0.1,0.6c-0.2,0.4-0.4,1-0.6,1.4
        C195.1,35.7,194.9,36.3,194.6,36.9z M197.6,26.3c0.1,0,0.1,0.2,0.1,0.2c-0.1-0.1-0.2-0.1-0.2-0.1v0.4h0.1c0.1-0.1,0.1-0.2,0.2-0.4
        c0.1-0.1,0.2-0.2,0.3-0.4c0.4-0.6,0.7-1.1,1.1-1.6c0.1-0.2,0.2-0.4,0.3-0.5c0-0.1-0.1-0.1-0.1-0.1c-0.2,0.2-0.3,0.4-0.4,0.5
        c-0.2,0.4-0.5,0.6-0.6,1.1c-0.1,0.1-0.2,0.1-0.2,0.2c-0.1,0.1-0.1,0.1-0.1,0.2s-0.2,0.2-0.4,0.4l-0.3,0.2
        C197.4,26.3,197.5,26.2,197.6,26.3z M199.4,34.2l-0.4-0.1c-0.2,0.4-0.5,0.8-0.7,1.1c0.4-0.1,0.4-0.8,1.1-0.6l-0.4-0.2
        c0-0.1,0-0.1,0.1-0.1C199.1,34.3,199.2,34.3,199.4,34.2L199.4,34.2z M201.1,30.4c-0.6,1.1-1.1,2.2-1.6,3.2h0.1
        c0.1-0.2,0.3-0.5,0.4-0.6c0.1-0.2,0.2-0.5,0.4-0.7c0.1-0.2,0.3-0.4,0.4-0.7c0.1-0.2,0.2-0.4,0.4-0.6
        C201,30.9,201.1,30.6,201.1,30.4L201.1,30.4z"/>
    <path d="M198.9,48.2c-0.1-0.1-0.4-0.3-0.7-0.4c-0.4-0.5-0.5-1.1-0.4-1.7c0.1-0.3,0.2-0.5,0.3-0.8c0.1-0.1,0.1-0.1,0.1-0.1
        c0.1-0.2,0.2-0.5,0.2-0.8l0.3-0.5c0.2-0.2,0.2-0.4,0.4-0.5c0.5-0.7,1-1.2,1.5-1.9c0.5-0.5,1.2-1.1,2-1.1c0.9,0.2,1.9,0.4,2,1.3
        c0.1,0.6-0.2,1-0.4,1.4c0.4-0.1,0.6-0.4,1.1-0.4c0.2,0.1,0.4,0.3,0.5,0.6c0,0,0.1,0.5-0.1,0.8c-0.1,0.1-0.1,0.1-0.1,0.2
        c-0.1,0.6-0.1,1.2,0.1,1.8c0.1,0.2,0.2,0.4,0.4,0.5c0.1,0.1,0.2,0.1,0.3,0s0.3-0.1,0.5-0.1c0.7-0.3,1.3-0.8,1.9-1.2
        c0.5-0.4,1.2-0.7,1.8-1.1c1-0.6,0.9-0.5,1.9-1.2c0.3-0.2,0.6-0.5,1.1-0.7l0.1,0.1l-0.4,0.5c0.1,0.2,0.1,0.2,0.4,0.1
        c0-0.1,0-0.2,0.2-0.2c-0.4,0.6-1.1,1-1.6,1.3c-0.2,0.2-0.5,0.3-0.6,0.4c-0.1,0.1-0.3,0.4-0.5,0.4c-0.1,0.1-0.2,0.1-0.3,0.1
        c0,0,0-0.1-0.1-0.1c0.1,0,0.2-0.1,0.2-0.2c0.2-0.1,0.2-0.2,0.2-0.4c0-0.1-0.1-0.1-0.1-0.1c-0.4,0.2-0.5,0.4-0.8,0.6
        c-0.5,0.2-0.9,0.5-1.3,0.8c-0.1,0.1-0.2,0.2-0.4,0.2v0.1c0.1-0.1,0.2-0.1,0.4-0.1c0.2-0.1,0.3-0.1,0.4-0.1c0-0.1-0.1-0.1-0.1-0.1
        c0.3-0.1,0.5-0.1,0.8-0.3c0.2-0.2,0.5-0.2,0.7-0.4c0,0.1-0.1,0.2-0.2,0.3c-0.4,0.2-0.7,0.4-1,0.6c-0.1,0.1-0.2,0.1-0.2,0.2
        c-0.1,0.1-0.2,0.1-0.3,0.2c0.1,0.1,0.2,0.1,0.3,0.1l-0.1,0.1c-0.1,0.1-0.2,0.1-0.3,0.1v0.2c0.2-0.1,0.5-0.2,0.7-0.4v0.1
        c-0.2,0.2-0.5,0.4-0.7,0.5c-0.4,0.4-0.7,0.5-1.1,0.8c-0.2,0.1-0.4,0.1-0.6,0.2c-0.1,0.1-0.3,0.1-0.4,0.1c-0.1,0-0.2,0.1-0.4,0.1
        c-0.2,0-0.5,0.1-0.7,0.1c-0.1-0.1-0.4-0.1-0.4-0.1c-0.1-0.1-0.2-0.2-0.4-0.2c-0.2-0.4-0.5-0.5-0.7-0.9c-0.2-0.2-0.2-0.4-0.4-0.5
        c-0.1-0.1-0.1-0.1-0.1-0.2c-0.3,0.2-0.3,0.6-0.6,0.6c-0.1,0.1-0.1,0.2-0.2,0.2c-0.5,0.4-1.2,0.9-1.9,1.2c-0.7,0.4-1.4,0.4-2,0.1
        C199.1,48.2,199,48.2,198.9,48.2z M200.7,46.8c0.5-0.2,0.9-0.5,1.3-1c0.6-0.7,0.9-1.2,1.6-1.9c0.1,0,0.2-0.2,0.2-0.2h-0.1
        c-0.9-0.1-0.6-1.9-0.5-2c-1.3,0.2-2.7,2.2-3.2,3c-0.4,0.7-0.8,1.4-1,2.2C199.6,47,200.3,47,200.7,46.8z M211.7,44.3
        c0-0.2,0.1-0.2,0.2-0.2c0.1-0.1,0.2-0.1,0.4-0.2c0.1-0.1,0.2-0.1,0.4-0.1v-0.2c0.1-0.1,0.1-0.1,0.2-0.2c0-0.1,0-0.1-0.1-0.1
        c-0.1,0.1-0.3,0.2-0.5,0.4c-0.3,0.2-0.8,0.5-0.9,0.6c0.1,0.1,0.2,0.1,0.4,0.2C211.7,44.4,211.7,44.3,211.7,44.3z"/>
    <path d="M211.8,49.5c-0.1-0.1-0.1-0.2-0.1-0.2c-0.3,0.1,0,0.3-0.1,0.4c-0.2-0.1-0.5-0.5-0.4-0.8c0.1-0.7,0.2-1.4,0.4-2.2
        c0.2-0.7,0.5-1.5,0.6-2.2c0.1-0.5,0.2-1,0.2-1.5c0-0.1,0-0.1-0.1-0.1c-0.1-0.1-0.1-0.4-0.1-0.6c0.1-0.3,0.1-0.4,0.4-0.4
        c0.5,0.1,0.8,0.4,1.1,0.8c0.1,0.1,0.1,0.1,0.1,0.1l-0.1,1c-0.1,0.3-0.1,0.5-0.2,0.8c-0.1,0.3-0.1,0.6-0.2,0.9c0,0.1,0,0.1-0.1,0.2
        c0.1-0.1,0.1,0,0.1-0.1c0.4-0.6,0.9-1.2,1.4-1.8c0.2-0.3,0.5-0.6,0.9-0.8c0.2-0.1,0.2-0.1,0.7-0.2c0.4,0,0.4,0.1,0.5,0.1
        c0.1,0,0.2,0.1,0.4,0.2c-0.1,0-0.2,0.1-0.4,0.1v0.1c0.4,0.1,0.5,0.4,0.9,0.1c0.1,0.2,0,0.4,0.2,0.5c0.1,0,0,0.1,0,0.2
        c0.1,0.4,0.2,0.8,0.2,1.1c0,0.4-0.1,0.7-0.1,1c0,0.1,0.1,0.2,0,0.4c0.1,0.3,0.1,0.6,0.1,0.9l0.1,0.4c0,0.1,0.1,0.2,0.2,0.2h0.1
        c0.1-0.1,0.2-0.1,0.9-0.5c0.2-0.1,0.5-0.2,0.7-0.4c0.2-0.1,0.5-0.4,0.7-0.5c0.1-0.1,0.2-0.1,0.2-0.2c0.2-0.2,0.4-0.4,0.6-0.5
        c-0.1-0.1-0.1-0.1-0.1-0.1c-0.2,0.2-0.5,0.4-0.8,0.6c-0.1-0.1-0.1-0.1-0.1-0.1c1.6-1.2,2.8-2.7,3.9-4.2c0,0,0.1,0,0,0.1
        c-0.1,0.1-0.2,0.2-0.2,0.3c-0.1,0.1-0.2,0.2-0.1,0.4c0,0,0,0.1-0.1,0.1c-0.2,0.1-0.2,0.1-0.3,0.2h0.2c-0.1,0.1-0.2,0.3-0.4,0.5
        l-0.1,0.5h0.1c-0.1,0.2-0.1,0.4-0.2,0.5c-0.1,0.2-0.2,0.4-0.4,0.5l-0.7,0.8c-0.1,0.1-0.1,0.2-0.2,0.4c0,0,0,0.1,0.1,0.1
        c-0.1,0.1-0.2,0.1-0.2,0.1c-0.2,0.4-0.5,0.6-0.8,0.9c-0.2,0.3-0.6,0.6-1,0.8c-0.6,0.4-1.3,0.4-1.9,0.5h-0.1
        c-0.3-0.1-0.4-0.1-0.6-0.4c-0.4-0.3-0.7-0.7-0.9-1.2c-0.2-0.7-0.4-1.5-0.3-2.4c0-0.2,0.1-0.5,0.1-0.8c-0.1-0.1-0.2-0.1-0.2-0.2
        c-0.1,0.5-0.3,0.6-0.6,0.6c-0.1,0.4-0.3,0.5-0.6,0.7c0.1,0.4-0.2,0.4-0.4,0.6c-0.1,0.1-0.3,0.4-0.2,0.4c0.1,0.3-0.2,0.1-0.2,0.3
        c-0.1,0-0.1,0-0.1-0.1c0.1,0.2-0.2,0.4-0.4,0.5c0.1,0.1,0.1,0.1,0.1,0.1c-0.1,0.1-0.1,0.1-0.1,0.1l0.1,0.1
        c-0.2,0.4-0.5,0.8-0.7,1.3c-0.2,0.2-0.4,0.4-0.5,0.4l-0.1,0.3c-0.1,0.1-0.1,0.1-0.1,0.1c-0.2,0.4-0.4,0.4-0.7,0.3
        C211.8,49.8,211.8,49.6,211.8,49.5z M214.5,44.6C214.5,44.6,214.5,44.7,214.5,44.6c-0.1,0.2-0.1,0.2-0.2,0.4l0.1,0.1
        c0.2-0.1,0.2-0.2,0.4-0.2c-0.1-0.1-0.1-0.1-0.1-0.1c0.1-0.1,0.1-0.1,0.1-0.1c0.1-0.1,0.2-0.4,0.4-0.2c0.1,0,0.1-0.1,0.1-0.1
        c-0.1-0.2,0.1-0.4,0.2-0.5c0.1,0.1,0.1,0.1,0.1,0.1c0.1-0.1,0.1-0.2,0.2-0.2c-0.3-0.1-0.5-0.1-0.7,0.1l-0.5,0.5l-0.6,0.8
        c0,0,0.1,0,0.1,0.1L214.5,44.6z M215.5,44.7h0.1c0-0.2-0.1-0.2-0.1-0.3c-0.1,0.1-0.4,0.1-0.2,0.4c-0.1,0.1-0.2,0.1-0.2,0.1
        c0,0.1,0,0.2,0.1,0.2C215.2,45,215.5,45.1,215.5,44.7z M222.2,46.2c0.2-0.2,0.4-0.3,0.5-0.5c0.1-0.1,0.2-0.2,0.4-0.4l-0.1-0.1
        c-0.4,0.4-0.6,0.6-0.9,1c0.1,0.1,0.1,0.1,0.1,0.1S222.2,46.3,222.2,46.2z"/>
    <path d="M223.1,49.5c-0.1-0.1-0.1-0.2-0.1-0.2c-0.3,0.1,0,0.3-0.1,0.4c-0.2-0.1-0.5-0.5-0.4-0.8c0.1-0.7,0.2-1.4,0.4-2.2
        c0.2-0.7,0.5-1.5,0.6-2.2c0.1-0.5,0.2-1,0.2-1.5c0-0.1,0-0.1-0.1-0.1c-0.1-0.1-0.1-0.4-0.1-0.6c0.1-0.3,0.1-0.4,0.4-0.4
        c0.5,0.1,0.8,0.4,1.1,0.8c0.1,0.1,0.1,0.1,0.1,0.1l-0.1,1c-0.1,0.3-0.1,0.5-0.2,0.8c-0.1,0.3-0.1,0.6-0.2,0.9c0,0.1,0,0.1-0.1,0.2
        c0.1-0.1,0.1,0,0.1-0.1c0.4-0.6,0.9-1.2,1.4-1.8c0.2-0.3,0.5-0.6,0.9-0.8c0.2-0.1,0.2-0.1,0.7-0.2c0.4,0,0.4,0.1,0.5,0.1
        c0.1,0,0.2,0.1,0.4,0.2c-0.1,0-0.2,0.1-0.4,0.1v0.1c0.4,0.1,0.5,0.4,0.9,0.1c0.1,0.2,0,0.4,0.2,0.5c0.1,0,0,0.1,0,0.2
        c0.1,0.4,0.2,0.8,0.2,1.1c0,0.4-0.1,0.7-0.1,1c0,0.1,0.1,0.2,0,0.4c0.1,0.3,0.1,0.6,0.1,0.9l0.1,0.4c0,0.1,0.1,0.2,0.2,0.2h0.1
        c0.1-0.1,0.2-0.1,0.9-0.5c0.2-0.1,0.5-0.2,0.7-0.4c0.2-0.1,0.5-0.4,0.7-0.5c0.1-0.1,0.2-0.1,0.2-0.2c0.2-0.2,0.4-0.4,0.6-0.5
        c-0.1-0.1-0.1-0.1-0.1-0.1c-0.2,0.2-0.5,0.4-0.8,0.6c-0.1-0.1-0.1-0.1-0.1-0.1c1.6-1.2,2.8-2.7,3.9-4.2c0,0,0.1,0,0,0.1
        c-0.1,0.1-0.2,0.2-0.2,0.3c-0.1,0.1-0.2,0.2-0.1,0.4c0,0,0,0.1-0.1,0.1c-0.2,0.1-0.2,0.1-0.3,0.2h0.2c-0.1,0.1-0.2,0.3-0.4,0.5
        l-0.1,0.5h0.1c-0.1,0.2-0.1,0.4-0.2,0.5c-0.1,0.2-0.2,0.4-0.4,0.5l-0.7,0.8c-0.1,0.1-0.1,0.2-0.2,0.4c0,0,0,0.1,0.1,0.1
        c-0.1,0.1-0.2,0.1-0.2,0.1c-0.2,0.4-0.5,0.6-0.8,0.9c-0.2,0.3-0.6,0.6-1,0.8c-0.6,0.4-1.3,0.4-1.9,0.5h-0.1
        c-0.3-0.1-0.4-0.1-0.6-0.4c-0.4-0.3-0.7-0.7-0.9-1.2c-0.2-0.7-0.4-1.5-0.3-2.4c0-0.2,0.1-0.5,0.1-0.8c-0.1-0.1-0.2-0.1-0.2-0.2
        c-0.1,0.5-0.3,0.6-0.6,0.6c-0.1,0.4-0.3,0.5-0.6,0.7c0.1,0.4-0.2,0.4-0.4,0.6c-0.1,0.1-0.3,0.4-0.2,0.4c0.1,0.3-0.2,0.1-0.2,0.3
        c-0.1,0-0.1,0-0.1-0.1c0.1,0.2-0.2,0.4-0.4,0.5c0.1,0.1,0.1,0.1,0.1,0.1c-0.1,0.1-0.1,0.1-0.1,0.1l0.1,0.1
        c-0.2,0.4-0.5,0.8-0.7,1.3c-0.2,0.2-0.4,0.4-0.5,0.4l-0.1,0.3c-0.1,0.1-0.1,0.1-0.1,0.1c-0.2,0.4-0.4,0.4-0.7,0.3
        C223,49.8,223.1,49.6,223.1,49.5z M225.7,44.6C225.7,44.6,225.7,44.7,225.7,44.6c-0.1,0.2-0.1,0.2-0.2,0.4l0.1,0.1
        c0.2-0.1,0.2-0.2,0.4-0.2c-0.1-0.1-0.1-0.1-0.1-0.1c0.1-0.1,0.1-0.1,0.1-0.1c0.1-0.1,0.2-0.4,0.4-0.2c0.1,0,0.1-0.1,0.1-0.1
        c-0.1-0.2,0.1-0.4,0.2-0.5c0.1,0.1,0.1,0.1,0.1,0.1c0.1-0.1,0.1-0.2,0.2-0.2c-0.3-0.1-0.5-0.1-0.7,0.1l-0.5,0.5l-0.6,0.8
        c0,0,0.1,0,0.1,0.1L225.7,44.6z M226.7,44.7h0.1c0-0.2-0.1-0.2-0.1-0.3c-0.1,0.1-0.4,0.1-0.2,0.4c-0.1,0.1-0.2,0.1-0.2,0.1
        c0,0.1,0,0.2,0.1,0.2C226.4,45,226.7,45.1,226.7,44.7z M233.4,46.2c0.2-0.2,0.4-0.3,0.5-0.5c0.1-0.1,0.2-0.2,0.4-0.4l-0.1-0.1
        c-0.4,0.4-0.6,0.6-0.9,1c0.1,0.1,0.1,0.1,0.1,0.1S233.4,46.3,233.4,46.2z"/>
    <path d="M241.8,47c0.5-0.2,1-0.6,1.6-0.9c-0.1,0.1-0.1,0.2-0.1,0.2c-0.2,0.2-0.4,0.4-0.5,0.5l-0.8,0.6c-0.4,0.2-0.6,0.4-0.9,0.5
        c-0.4,0.2-0.7,0.5-1.1,0.7c-0.2,0.1-0.5,0.1-0.8,0.2c-0.2,0-0.2,0.1-0.4,0.1c-0.2,0.1-0.4,0.1-0.6,0.2c-0.4,0.1-0.6,0.2-1,0.1
        c-0.4-0.1-0.9-0.1-1.3-0.2c-0.4-0.1-0.5-0.2-1-0.5c-0.1-0.1-0.2-0.1-0.2-0.2c-0.3-0.2-0.5-0.5-0.7-0.8c-0.1-0.1-0.1-0.1-0.2-0.5
        c-0.2-0.5-0.2-0.8-0.2-1.1c0.1-0.8,0.2-1.6,0.7-2.5c0.2-0.2,0.4-0.5,0.5-0.8c0.4-0.5,0.8-0.9,1.1-1.3c0.4-0.4,0.8-0.6,1.4-0.7
        c0.1,0,0.2-0.1,0.4-0.1c0.4-0.2,0.8,0.1,1.1,0.3c0.4,0.2,0.7,0.4,1,0.7c0.4,0.2,0.5,0.9,0.4,1.3c-0.1,0.2-0.2,0.4-0.4,0.5
        c-0.4,0.4-0.8,0.8-1.1,1.2c-0.1,0.1-0.4,0.2-0.4,0.3c-0.1,0.3-0.4,0.4-0.5,0.4l-0.3,0.2c0.1,0,0.1,0.1,0.1,0.1
        c-0.1,0.1-0.2,0.1-0.4,0.2c-0.1,0.1-0.1,0.2-0.1,0.2c-0.3,0.2-0.6,0.3-0.9,0.5c-0.1,0.1-0.2,0.2-0.3,0.2c-0.4,0.2-0.5,0.2-0.8,0.4
        c0.2,0.5,0.2,0.6,0.6,0.7c0.5-0.1,1.1,0,1.6-0.1c0.4-0.1,0.8-0.2,1.1-0.4c0.3-0.1,0.6-0.3,1-0.4c0.2-0.1,0.4-0.1,0.6-0.2
        c0.5-0.3,1-0.5,1.4-0.8l0.1-0.1l0.1,0.1c-0.1,0.1-0.1,0.2-0.2,0.2c0.1,0.1,0.1,0.1,0.1,0.1c0.1,0,0.2-0.1,0.4-0.1
        c0.1,0.1,0.1,0.1,0,0.1c-0.2,0.1-0.4,0.3-0.5,0.5c0.1,0.1,0.4,0.1,0.5,0.2C242,46.9,241.9,46.9,241.8,47
        C241.8,46.9,241.8,47,241.8,47z M235.3,45.2c0.4-0.2,0.5-0.4,0.7-0.5c0.1,0,0.2,0.1,0.2,0c0.1-0.1,0.4-0.2,0.5-0.4
        c-0.1,0-0.2,0.1-0.3,0.1c0.2-0.2,0.4-0.5,0.7-0.5c-0.1,0.1-0.2,0.2-0.3,0.4c0,0,0,0.1,0.1,0.1c0.4-0.2,0.7-0.5,1.1-0.8l-0.1-0.1
        c-0.1,0.1-0.2,0.2-0.4,0.2c-0.1,0.1-0.2,0.2-0.4,0.2c0.1-0.1,0.1-0.1,0.1-0.1c0.4-0.4,0.8-0.6,1.1-1c0.2-0.2,0.4-0.5,0.6-0.8
        c0.1-0.2-0.1-0.6-0.2-0.5c-0.4,0.2-0.8,0.2-1.1,0.4c-0.4,0.3-0.8,0.5-1.1,0.9c-0.4,0.5-0.6,1-0.9,1.5
        C235.4,44.6,235.4,44.9,235.3,45.2z M239,43c0.1-0.2,0.4-0.5,0.5-0.8l-0.1-0.4C239,42.3,238.8,42.6,239,43z M241.5,46.1
        c-0.1-0.1-0.4,0-0.7,0.4C241.1,46.4,241.4,46.3,241.5,46.1z M241.9,45.6c0.4-0.2,0.8-0.4,1.2-0.7C243,45.1,242.8,45.2,241.9,45.6
        L241.9,45.6z M244.4,44.4L244.4,44.4C244.4,44.4,244.5,44.4,244.4,44.4C244.5,44.5,244.5,44.5,244.4,44.4c0,0.1-0.2,0.3-0.4,0.4
        L244,45c-0.2,0.1-0.2,0.2-0.1,0.3c-0.2,0.1-0.4,0.1-0.5,0.4c0,0,0,0.1-0.1,0.1c-0.3,0-0.5,0.3-0.7,0.5c-0.1,0.1-0.3,0.2-0.5,0.3
        c-0.1,0.1-0.2-0.1-0.2-0.1c-0.1-0.1-0.1-0.2-0.1-0.2c0-0.1,0.1-0.1,0.1-0.1c0.2,0.2,0.6-0.2,0.9-0.4l0.3-0.2
        c0.2-0.1,0.2-0.2,0.1-0.4c-0.3,0.2-0.7,0.5-1,0.8c-0.1-0.1-0.2-0.1-0.3-0.1c0.3-0.2,1-0.5,1.2-1c0.1-0.1,0.5-0.3,0.7-0.4l0.3,0.1
        c0.1-0.1,0.2-0.2,0.2-0.3c-0.1-0.1-0.1-0.1-0.2-0.1l0.1-0.1c0.1,0,0.2,0,0.5-0.1c-0.1-0.1-0.1-0.1-0.1-0.2l0.2-0.2l-0.1-0.1
        l-0.2,0.1h-0.1l0.7-0.5l0.1,0.3c0,0,0.1,0,0.1,0.1c-0.1,0.1-0.2,0.2-0.4,0.3C244.9,44.1,244.6,44.3,244.4,44.4z"/>
    <path d="M244.9,48.2c0,0-0.1-0.1-0.2-0.1l-0.2,0.2c-0.2-0.4-0.4-0.8-0.2-1.4l0.4-1.8c0.1-0.5,0.2-0.9,0.2-1.4
        c0.1-0.6,0.3-1.2,0.4-1.8c0.1-0.6,0.2-1.1,0.3-1.8c0.1-0.1,0.1-0.2,0.1-0.3c0.1-0.1,0.2-0.2,0.4-0.2c0.4-0.2,0.8,0.1,0.9,0.7
        c0.1,0.4,0.2,0.7,0.1,1.1c0,0.1-0.1,0.2-0.1,0.5c0.1-0.2,0.3-0.3,0.4-0.4c0.2-0.4,0.5-0.6,0.8-0.9c0.4-0.5,0.8-0.9,1.3-1.2
        c0.5-0.4,1.1-0.4,1.6-0.1c0.2,0.2,0.4,0.4,0.6,0.5c0.1,0.1,0.1,0.1,0.2,0.1c0.2,0.1,0.2,0.3,0.4,0.5l-0.1,0.2c0,0-0.2,0.1-0.8-0.1
        c-0.2,0-0.5-0.1-0.8,0.2c-0.2,0.2-0.4,0.3-0.7,0.5c-0.1,0.1-0.2,0.2-0.3,0.4c-0.2,0.2-0.5,0.4-0.7,0.6c-0.2,0.4-0.6,0.7-0.9,1.1
        c-0.3,0.4-0.6,0.8-0.9,1.3c-0.4,0.6-0.6,1.1-0.8,1.6c-0.2,0.4-0.2,0.8-0.4,1.2c-0.1,0.3-0.1,0.6-0.2,0.9c-0.1,0.5-0.2,0.6-0.6,0.5
        C244.9,48.8,244.9,48.6,244.9,48.2z M248,41.9C248,41.9,248,41.9,248,41.9c0.5-0.5,0.9-1.1,1.3-1.5c-0.1-0.4-0.2,0.2-0.4,0.1
        c-0.1,0.2-0.2,0.4-0.2,0.4c-0.4,0.1-0.6,0.6-1,0.9c-0.2,0.2-0.4,0.5-0.4,0.9C247.4,42.3,247.7,42.1,248,41.9z M248.7,41.9
        c0.2-0.1,0.4-0.4,0.6-0.6c-0.2,0.1-0.5,0.2-0.6,0.4c-0.2,0.2-0.4,0.4-0.5,0.7C248.4,42.5,248.5,42,248.7,41.9z"/>
    <path d="M267.7,51c-0.4-0.1-0.8-0.1-1.2-0.2c-0.2-0.2-0.5-0.2-0.7-0.3c-0.1-0.1-0.3,0-0.5-0.1c-0.2-0.1-0.4-0.2-0.5-0.3
        c-0.6-0.4-1.2-1-1.6-1.6c-1-1.6-0.7-2.9-0.2-4.1c-0.1-0.1,0.1-0.2,0-0.4c0.4-0.1,0.4-0.3,0.5-0.5c0.1-0.2,0.2-0.4,0.4-0.5v0.1
        c0-0.1,0-0.2,0.2-0.2c0.1,0.1,0.3,0,0.4-0.1c-0.1,0-0.2-0.1-0.2-0.1l0.3-0.2c0.1-0.1,0.1-0.1,0.1-0.1c0.1-0.1,0.1-0.2,0.2-0.4
        l0.3-0.5c0.1-0.1,0.1-0.2,0.3-0.3c-0.1-0.1-0.1-0.1-0.1-0.2h0.4c0-0.2,0.1-0.2,0.2-0.3c0.1,0.1,0.1,0.1,0.1,0.1
        c0.2-0.2,0.4-0.6,0.8-0.6l0.1-0.1c0.1-0.4,0.4-0.4,0.7-0.6c0.1-0.1,0.2-0.1,0.2-0.2c0.1-0.1,0.3-0.2,0.4-0.4
        c0.3-0.1,0.5-0.2,0.5-0.5c0.2-0.1,0.4-0.1,0.6-0.4c0.2-0.2,0.6-0.4,0.9-0.5c-0.1,0-0.1-0.1-0.1-0.1c-0.1,0-0.2-0.1-0.2,0l-0.8,0.4
        c-0.1,0.1-0.2,0.1-0.2,0.1c0.1-0.1,0.2-0.2,0.4-0.3l0.5-0.3c-0.4,0-0.6-0.4-0.9-0.2c-0.5-0.1-0.9-0.2-1.4-0.3
        c-0.1,0-0.1-0.1-0.2-0.1c-0.2,0-0.8-0.2-1-0.4c-0.4,0.1-0.7-0.2-1.1-0.4c-0.4-0.4-0.8-0.7-1.1-1.2c-0.1-0.2-0.3-0.4-0.4-0.6
        c-0.4-1.1-0.1-2.3,1-3.2c0.3-0.4,0.7-0.6,1.2-0.8c0.6-0.4,1.3-0.6,1.9-0.9l2.2-0.7c-0.4,0-0.7,0.1-1,0.1c-0.5,0.1-0.8,0.2-1.2,0.3
        c0.5-0.4,1.1-0.5,1.7-0.5c0.5-0.1,0.9-0.2,1.5-0.2c0.3-0.1,0.8-0.1,1.2-0.1c0.9,0,1.5,0,2.8,0.3c0.8,0.2,1.6,0.5,2.5,1.1
        c0.6,0.5,0.7,0.5,1.6,1.5l0.2,0.4c0.1,0.1,0,0.4-0.1,0.6c-0.2,0.2-0.3,0.3-0.5,0.1c-0.1-0.1-0.3-0.2-0.4-0.4
        c-0.7-0.9-1.6-1.6-2.7-1.9c-0.9-0.4-1.2-0.4-2.3-0.5c-0.7-0.1-1.5-0.1-2.8,0.1c-0.8,0.2-1.2,0.3-1.9,0.5c-1.2,0.5-2.2,1-2.6,1.6
        c-0.6,0.7-0.8,1.3-0.5,2.2c0.2,0.5,0.5,0.9,0.9,1.1c0.5,0.3,1.1,0.5,1.5,0.7c1.5,0.5,2.7,0.6,4.4,0.5l1.3-0.2
        c0.2,0,0.4,0.1,0.6,0.2l0.7,0.4c0.2,0.1,0.2,0.3,0.1,0.5c-0.1,0.1,0,0.1,0,0.2h-1c-1.1,0.1-2,0.6-3.1,1.2c-0.5,0.4-1.1,0.7-1.7,1.1
        c-0.9,0.7-1.6,1.1-2.3,2c-0.2,0.1-0.5,0.4-0.7,0.6l-0.5,0.8c-0.4,0.4-0.7,0.8-1.2,1.8c-0.7,1.4-0.5,2.7,0.1,3.4
        c0.8,1,1.5,1.5,2.6,1.8c1,0.2,2,0.2,3,0.2c0.8,0.1,1.3-0.1,2.3-0.2c0.4-0.1,0.5-0.2,1-0.4c0.4-0.1,0.8-0.2,1.1-0.5
        c0.2-0.2,0.5-0.2,0.5-0.6c0-0.1,0.2-0.2,0.3-0.2c0-0.1,0.1-0.1,0.1-0.2c0.5-0.6,1-1.3,1.3-1.9c0.4-0.8,0.6-1.6,0.8-2.3
        c0.1-0.4,0.1-0.7,0.2-1.1c0-0.1,0.1-0.2,0.1-0.4c0.2,0,0.3,0.2,0.3,0.4c-0.1,0.3-0.1,0.6-0.2,1c-0.2,0.7-0.4,1.3-0.6,2.1
        c0,0,0,0.1-0.1,0.1c-0.4,0.4-0.5,0.9-0.8,1.3c-0.2,0.2-0.4,0.5-0.6,0.7l-0.2,0.2c0.1-0.1,0.4-0.2,0.5-0.3c0.2-0.2,0.4-0.2,0.5-0.5
        c0.6-0.6,1-1.3,1.2-2.1l0.4-1.1c0,0.1,0.1,0.1,0.1,0.1l-0.2,1c0.2-0.1,0.2-0.1,0.4-0.2c0.1,0.2,0,0.4-0.1,0.5
        c0,0.2,0.1,0.4-0.1,0.6c-0.1,0.1,0,0.2,0,0.4c-0.4,0.1-0.5,0.4-0.6,0.7c-0.1,0.3-0.4,0.4-0.6,0.6c0,0.1-0.1,0.1-0.1,0.2
        c0.1,0.2,0.1,0.1,0.3,0.1c0.1-0.2,0.2-0.4,0.5-0.5c-0.3,0.4-0.5,0.8-1,0.8c-0.5,0-0.8,0.5-1.1,0.8c-0.1,0.1-0.2,0.2-0.4,0.4h-0.1
        c-0.3,0.3-0.5,0.4-0.9,0.5l0.1,0.2c-0.1-0.1-0.2-0.1-0.4-0.1c-0.2,0-0.4,0.1-0.4,0.2c-0.1,0.2-0.2,0.3-0.4,0.3
        c0.1,0.2,0,0.4-0.2,0.4c-0.5,0.1-0.8,0.1-1.3,0.1c-0.1,0.1-0.1-0.1-0.2-0.1c-0.2,0.1-0.4,0.1-0.5,0.3c0,0.1-0.2,0.1-0.4,0.1
        C269.6,51.2,268.7,51.3,267.7,51z M263.3,45.3c0.1-0.1,0.1-0.2,0.1-0.4c-0.1,0-0.2,0.1-0.3,0.1C263.2,45.1,263.2,45.2,263.3,45.3
        L263.3,45.3z M264.2,43.2L264.2,43.2c-0.2-0.1-0.2,0-0.2,0c0,0.1,0.1,0.1,0.1,0.2L264.2,43.2z M265.6,29.7c0.1-0.1,0.2-0.1,0.2-0.1
        c0,0,0,0.1,0.1,0.1l-0.4,0.2C265.6,29.8,265.6,29.7,265.6,29.7z M267.1,29.1c-0.2,0.1-0.4,0.2-0.7,0.4
        C266.5,29.2,266.8,29.1,267.1,29.1z M267.7,28.9c-0.2,0.1-0.5,0.2-0.8,0.2C267.3,28.9,267.4,28.8,267.7,28.9z M267.5,39.4
        L267.5,39.4c0.1-0.1,0.1-0.1,0.1,0C267.6,39.4,267.6,39.5,267.5,39.4C267.5,39.5,267.5,39.5,267.5,39.4z M269,37.8
        c-0.2,0.4-0.6,0.5-0.9,0.6C268.4,38.2,268.6,38,269,37.8z M268.5,50.9L268.5,50.9c-0.1-0.2-0.1-0.2-0.2-0.2v0.2H268.5z M269.2,43.7
        c0,0.1,0,0.1-0.1,0.1l-0.1,0.1C269.2,43.8,269.2,43.7,269.2,43.7z M269.5,43.5c0.1,0,0.1-0.1,0.2-0.2c0,0.1,0.1,0.1,0.1,0.2
        C269.6,43.5,269.6,43.6,269.5,43.5L269.5,43.5z M270.9,44.6c-0.2-0.2-0.1-0.5,0-0.7c0.5-0.7,1.1-1.3,1.8-1.8l1.1-0.8
        c0.4-0.2,0.8-0.4,1.2-0.6c0.2-0.2,0.5-0.2,0.7-0.2c-0.1,0.1-0.2,0.2-0.4,0.2c-0.2,0.1-0.5,0.2-0.6,0.4c0.1,0,0.3-0.1,0.4-0.1
        c0.1-0.1,0.2-0.2,0.4-0.2c0.2-0.1,0.5-0.2,0.8-0.2c0.1,0,0.1-0.1,0.1-0.1h0.1c0-0.2,0.3-0.1,0.2-0.3c-0.1,0-0.1,0.1-0.2,0.1h-0.1
        c0.1-0.1,0.1-0.1,0.2-0.1c0.1-0.1,0.1-0.1,0.2-0.1c0.5-0.2,1.1-0.4,1.8-0.5c0.2-0.1,0.5-0.2,0.7-0.2s0.4-0.1,0.5,0.1
        c0.1,0,0.2,0,0.4-0.1H280v-0.1h0.8c0.1,0.1,0.1,0.1,0.2,0.1h0.4v-0.1c-0.2,0.1-0.2,0.1-0.4,0.1v-0.1h0.2c0.5,0,0.8,0.1,1.3,0.1
        c0.5,0.1,0.8,0.2,1.3,0.3c0.2,0.1,0.5,0.3,0.7,0.5l-0.2,0.1c-0.5-0.2-0.8-0.2-1-0.2c0.1,0,0.1,0.1,0.1,0.1c-0.2,0-0.4,0-0.6-0.1
        l0.1-0.1c-0.1,0-0.1-0.1-0.1,0c-0.2,0.2-0.3,0.1-0.4,0.1c-0.3-0.1-0.5-0.1-0.8-0.1c-0.2,0.1-0.4,0.1-0.6,0c-0.1,0-0.1,0-0.2,0.1
        c-0.2,0.1-0.5,0.1-0.8,0.1c-0.2,0-0.3,0-0.4,0.1c-0.1,0.1-0.4,0-0.5,0.1c-0.4,0.2-0.9,0.2-1.2,0.4c-0.2,0.1-0.5,0.1-0.7,0.1
        c-0.2,0-0.2,0-0.4,0.1c-0.2,0.1-0.4,0.2-0.6,0.4H276c-0.1,0-0.2,0-0.4-0.1c0,0-0.1,0.1-0.1,0.1l0.1,0.1c-0.1,0-0.1,0.1-0.1,0.1
        c-0.2,0.1-0.5,0.2-0.7,0.4c-0.1,0-0.1,0.1-0.2,0.1c-0.3,0.1-0.5,0.5-0.9,0.5c-0.1,0-0.1,0.1-0.1,0.1c-0.2,0.2-0.4,0.4-0.5,0.5
        c-0.1,0-0.1,0.1-0.2,0.1c-0.2,0.1-0.3,0.2-0.4,0.4c-0.2,0.1-0.4,0.2-0.5,0.5l-0.3,0.5c-0.2,0.2-0.2,0.4-0.1,0.5
        c0.1,0.1,0,0.2,0.1,0.2c-0.2,0.1-0.3,0.1-0.5,0L270.9,44.6z M272.2,50.7c0.2,0.1,0.4,0.1,0.5,0.2C272.5,50.5,272.5,50.5,272.2,50.7
        z M272.7,42.3l0.1-0.1C272.7,42.2,272.7,42.3,272.7,42.3L272.7,42.3z M273.2,42L273.2,42c-0.1,0-0.1,0-0.1,0v0.1
        C273.1,42.1,273.2,42.1,273.2,42z M274,50.6c0.1-0.2,0.2-0.3,0.4-0.4c0.1,0,0.2-0.1,0.3-0.1c0,0.1,0,0.2,0.1,0.2
        c-0.2,0.1-0.4,0.2-0.6,0.3C274,50.6,274,50.6,274,50.6z M275.8,40.3c0.1,0,0.3-0.1,0.4-0.1v0.1c-0.1,0.1-0.2,0.1-0.4,0.2
        C275.9,40.5,275.9,40.5,275.8,40.3z M276.3,39.7L276.3,39.7C276.3,39.8,276.3,39.8,276.3,39.7L276.3,39.7z M276.5,39.6
        c-0.1,0.2-0.1,0.2-0.3,0.1C276.4,39.7,276.4,39.6,276.5,39.6z M277.6,40L277.6,40L277.6,40l0.1-0.1c-0.3,0.1-0.5,0.2-0.9,0.2
        c0,0.1,0.1,0.1,0.1,0.2C277.1,40.2,277.3,40.1,277.6,40z M277.5,40.5l0.2-0.1c0.1,0,0.2,0,0.4-0.1c-0.1-0.2-0.1-0.3-0.2-0.2
        c0.1,0.2-0.2,0.1-0.2,0.2l-0.6,0.2c-0.2,0-0.2,0.1-0.4,0.1c0.1,0,0.1,0.1,0.1,0.1C277.1,40.7,277.3,40.6,277.5,40.5z M277,39.5
        c0.2,0,0.2-0.1,0.5-0.1v0.1l-0.5,0.2V39.5z M278.5,39.7L278.5,39.7c-0.1,0-0.2,0-0.3,0.1v0.1L278.5,39.7z M278.4,42.7
        c0.2,0.4,0.2,0.8-0.1,1.2C278.3,43.5,278.3,43.1,278.4,42.7z M278.4,44.4C278.4,44.4,278.4,44.4,278.4,44.4l0.1,0.3h-0.1V44.4z
         M279.1,40c0.4,0.1,0.7-0.2,1.1-0.2c-0.3,0-0.5,0-0.8,0.1h0.1l0,0h-0.3C279.3,39.9,279.2,40,279.1,40c-0.2-0.1-0.4,0-0.5,0.1
        C278.8,40.1,278.9,40.1,279.1,40z M278.7,43.6c0.1,0.2,0.1,0.2-0.1,0.4C278.6,43.8,278.6,43.7,278.7,43.6z M279.4,39.6L279.4,39.6
        l-0.4-0.1v0.1H279.4z M281.6,39.8h0.3v-0.1C281.8,39.8,281.6,39.7,281.6,39.8c-0.1,0-0.3-0.1-0.3-0.1h-0.8c0.1,0.1,0.2,0.1,0.4,0.1
        h0.2C281.2,40,281.5,39.9,281.6,39.8c0,0.1,0.2,0.1,0.3,0.1C281.8,39.9,281.8,39.9,281.6,39.8z M281.7,40.5
        c-0.1-0.1-0.2-0.1-0.2-0.1c-0.2,0-0.4,0-0.5-0.1c0.4,0,0.7-0.1,1,0c0.1,0,0.2,0.1,0.4,0.2C282,40.6,282,40.6,281.7,40.5z
         M282.6,38.8v0.2H282C282,38.8,282.3,38.8,282.6,38.8z"/>
    <path d="M311.5,23v0.1c0.1-0.2,0.1-0.2,0.2-0.4c-0.2-0.5,0.2-0.8,0.2-1.1c0.1,0.4-0.1,0.8-0.2,1.1c-0.1,0.2-0.1,0.4-0.1,0.6
        c-0.1,0-0.1-0.1-0.2-0.1l-0.1,0.3h0.1c0.1-0.1,0.1-0.1,0.2-0.2v0.1c-0.1,0.5-0.2,1-0.4,1.6c0,0.1-0.1,0.1-0.1,0.1
        c0.1,0.2-0.1,0.4-0.3,0.5c-0.1,0-0.1,0.1-0.1,0.2c0.1-0.1,0.1-0.1,0.1-0.2c0.4,0.5-0.2,0.2-0.2,0.4c0.1,0.1,0.1,0.2,0.2,0.2v0.1
        c-0.1,0-0.1,0-0.2-0.1c0,0.2,0.1,0.5,0.1,0.6c-0.1,0-0.2,0-0.3,0.1v0.1l-0.1,0.2c-0.1,0.2-0.1,0.5-0.1,0.7c-0.1,0-0.1,0.1-0.2,0.1
        c-0.2,0-0.2,0.1-0.2,0.3c0.1,0.1,0.1,0.3-0.1,0.5c0,0.2-0.2,0.6-0.4,0.9c0-0.1,0-0.2,0.1-0.3c-0.1,0-0.2,0-0.4-0.1l0.3-0.5
        c-0.2,0-0.3,0.2-0.4,0.6c0.1,0,0.2,0.1,0.3,0.1c-0.2,0.2-0.5,0.2-0.3,0.6c-0.1,0.1-0.2,0.3-0.2,0.5h-0.1c0.1,0.4-0.1,0.5-0.2,0.8
        c-0.2,0.2-0.4,0.4-0.5,0.5c0.1,0.1,0.1,0.2,0.1,0.2h-0.1c-0.2,0.4-0.5,0.6-0.5,0.9c-0.1,0.4-0.3,0.6-0.4,0.8l-0.1-0.1
        c0.1-0.1,0.1-0.2,0.1-0.3c-0.1,0.1-0.1,0.1-0.2,0.2v-0.2c0.1-0.1,0.1-0.2,0.1-0.2c0.1-0.2,0.1-0.3,0.2-0.4c0.1,0,0.1-0.1,0.1-0.2
        c0.2-0.2,0.4-0.5,0.5-0.8c0.1-0.1,0.2-0.3,0.3-0.5l-0.1-0.1c-0.2,0.1-0.8,0.7-0.9,0.8c-0.1,0.4-0.1,0.5-0.4,0.4
        c0-0.1,0-0.2,0.1-0.4c0,0-0.1,0-0.1-0.1c-0.1,0.2-0.4,0.5-0.5,0.7c-0.2,0.3-0.4,0.7-0.6,0.9c-0.1,0-0.1,0.1-0.1,0.1
        c-0.1,0.2-0.2,0.4-0.4,0.4c0,0,0,0.1,0.1,0.1c-0.1,0.1-0.3,0.2-0.2,0.5L305,35c-0.2,0.2-0.4,0.5-0.6,0.7c-0.1,0-0.1,0.2-0.1,0.2
        c0.1,0.1,0.1,0.1,0.1,0.1c0.1-0.2,0.4-0.4,0.4-0.5c0.1,0,0.1-0.1,0.1-0.1c0.4-0.1,0.5-0.5,0.7-0.8c0.1-0.2,0.4-0.4,0.5-0.6
        c0.2-0.2,0.4-0.5,0.5-0.8c0.2-0.2,0.2-0.2,0.5-0.1c0.1,0.2-0.5,0.1-0.3,0.5c-0.2,0.1-0.2,0.3-0.3,0.5c-0.1,0.1-0.1,0.1-0.1,0.1
        c-0.5,0.2-0.5,0.5-0.6,0.8c-0.2,0.4-0.5,0.8-0.8,1V36c0.1-0.1,0.2-0.2,0.4-0.3c0.1-0.2,0.3-0.5,0.5-0.8c0.1-0.2,0.4-0.3,0.6-0.2
        c-0.1,0.3-0.6,0.1-0.6,0.5c0.2,0.1,0.2,0.1-0.1,0.4c-0.1,0-0.1-0.1-0.1-0.1c-0.1,0.6-0.6,1.1-0.9,1.6h-0.1c0.2-0.3,0.4-0.6,0.5-0.9
        c0,0-0.1,0-0.1-0.1c0,0.1-0.1,0.2-0.1,0.3c0,0-0.1,0-0.1-0.1v-0.1h-0.3l-0.5,0.6l-0.9,1.3c-0.2,0.2-0.4,0.4-0.5,0.5
        c-0.2,0.4-0.5,0.7-0.7,1c-0.1,0.1-0.1,0.1-0.2,0.1c-0.2,0.1-0.4,0.1-0.3,0.3c-0.2-0.1-0.4-0.2-0.5,0.1c-0.1,0.1-0.1,0.2-0.1,0.5
        c0.2,0,0.4-0.1,0.5-0.2c0.3-0.4,0.6-0.6,0.9-1c0.3-0.3,0.5-0.7,0.8-1c0.3-0.5,0.6-0.9,0.9-1.2c0-0.1,0.1-0.1,0.2-0.2
        c0.1,0.1,0.1,0.1,0.1,0.1c-0.1,0.1,0.2,0.3,0.4,0.2c-0.1,0.1-0.2,0.2-0.2,0.4c-0.1-0.1-0.2-0.1-0.4-0.1c-0.1,0.3-0.4,0.5-0.3,0.9
        c-0.1-0.1-0.1-0.1-0.2-0.1v0.1c0.1,0.1,0.1,0.1,0.1,0.1c-0.1,0.1-0.2,0.1-0.4,0.2c0.2,0.2-0.1,0.4-0.1,0.5
        c-0.2,0.1-0.4,0.4-0.5,0.6c-0.2,0.2-0.2,0.2-0.3,0.2c-0.1,0.1-0.1,0.2-0.2,0.3c-0.1,0.1-0.1,0.2-0.2,0.2l-1.9,2.3
        c-0.1,0.1-0.1,0.2-0.1,0.3v0.2c0,0.1,0,0.2-0.1,0.2c0.1,0.1,0.1,0.2-0.1,0.4c-0.1,0.1,0.1,0.3,0.1,0.5l0.2,1.5l0.1,0.5
        c0,0.1,0.1,0.3,0.2,0.4c0.2,0.2,0.4,0.4,0.5,0.4c0.5,0.2,0.8,0.2,1.3,0.1c0.6,0,1.2-0.2,1.9-0.4c1.1-0.4,2-1,3.1-1.5
        c0.2-0.1,0.4-0.2,0.6-0.4c0.1-0.1,0.1,0,0.2,0c-1.2,0.8-2.3,1.5-3.7,2l0.3,0.1c0.2,0,0.4,0.1,0.7-0.1c0.1-0.1,0.2-0.1,0.4-0.1
        l0.1-0.2c0.5-0.4,1.2-0.8,1.7-1.1c0.1,0.1,0.1,0.1,0.1,0.1c-0.3,0.3-0.5,0.5-0.8,0.8c0,0,0.1,0.1,0.1,0.1c-0.6,0.5-0.6,0.5-1.1,1
        c-0.4,0.2-1.4,0.5-1.8,0.7c-0.3,0.1-0.6,0.2-1,0.3c-0.2,0.1-0.4,0.1-0.7,0.1c-0.2,0-0.5-0.1-0.8-0.1c-0.6,0-1.2-0.2-1.7-0.5
        c-0.5-0.4-0.7-0.6-0.9-1.1L299,47l-0.1-0.2c-0.1-0.6-0.4-1.1-0.4-1.4l-0.5,0.7c-0.1,0.1-0.2,0.3-0.2,0.4c-0.4,0.6-0.5,0.5-0.8,0.9
        c-0.3,0.3-0.6,0.6-0.9,1c-0.4,0.2-0.8,0.5-1.2,0.7c-0.7,0.4-1.3,0.4-2,0.2c-0.3-0.1-0.6-0.4-0.9-0.5c-0.2-0.1-0.2-0.5-0.4-0.8
        c-0.1-0.1,0-0.2-0.1-0.4c-0.1-0.4-0.4-0.7-0.4-1.2c0.2-0.5,0.2-0.8,0.3-1.3V45h0.1c0.2-0.4,0.4-1.1,0.5-1.3c0,0,0-0.1,0.1-0.1
        c0.2-0.4,0.4-0.8,0.5-1l0.2-0.4c2.5-2.8,5-1.6,5-1.6s1.3,1-0.1,2.2h-0.1c-0.5,0.1-0.8-0.2-0.9-0.8c-0.2-0.4-0.5-0.5-1.3-0.2
        c-0.2,0.2-0.4,0.2-0.6,0.5c-0.5,0.5-1,1.1-1.3,1.8c-0.1,0.2-0.2,0.5-0.3,0.5c0,0.1,0,0.2-0.1,0.3c-0.1,0.4-0.2,1-0.2,1.2
        c-0.1,0.1-0.1,0.3-0.1,0.4c-0.3,0.5-0.1,1-0.1,1.5c0.5,0.2,1,0,1.3-0.2c0.4-0.2,0.6-0.4,0.9-0.7c0.4-0.3,0.6-0.7,0.9-1
        c0.2-0.4,0.5-0.5,0.7-0.8l1.1-1.6l0.7-1.2c0-0.1,0,0.1,0.3-0.6c0-0.1,0.1-0.2,0.1-0.3c0.1-0.1,0.1-0.2,0.1-0.4l0.4-2.8
        c0.2-0.7,0.3-1.3,0.5-2.1c0.1-0.5,0.2-1.1,0.4-1.8c0.1-0.1,0.2-0.4,0.2-0.6l0.2,0.1c0.1-0.2,0.1-0.2,0.1-0.5
        c-0.1,0.1-0.2,0.2-0.4,0.3c0-0.1,0-0.2,0.1-0.2c0.2-0.8,0.4-1.5,0.7-2.2c0.2-1.1,0.6-2,1-3c0.1-0.2,0.1-0.2,0.3-0.1
        c0-0.1,0.1-0.1,0.1-0.2c-0.1,0.1-0.2,0.1-0.4,0.1c0.2-0.5,0.3-0.8,0.5-1.1l0.4-1.1c0.2-0.4,0.4-0.8,0.6-1.2
        c0.1-0.2,0.2-0.5,0.4-0.8c0.2-0.2,0.3-0.4,0.4-0.6l0.4-0.7c0-0.1,0-0.1,0.1-0.1c0.2-0.3,0.4-0.7,0.6-1.1c0-0.1,0.1-0.1,0.1-0.1
        c0.1-0.2,0.4-0.4,0.5-0.6c0.1-0.1,0.1-0.1,0.1-0.1c0-0.4,0.4-0.6,0.5-0.8s0.4-0.5,0.5-0.7c0.6-0.7,1.4-1,2.3-1.2
        c0.7-0.2,1.4,0.1,2,0.5c0.5,0.2,0.5,0.8,0.8,1.3c0.1,0.4-0.2,0.7-0.1,1.1c0,0-0.1,0.1-0.1,0.2l0.4,0.1v0.1h-0.2
        C311.7,21.6,311.6,22.3,311.5,23z M291.5,44.9L291.5,44.9c-0.1,0.1-0.1,0.2,0,0.2c0-0.1,0.1-0.1,0.1-0.1L291.5,44.9L291.5,44.9z
         M297.2,44.9c-0.1,0.1-0.2,0.1-0.3,0c-0.1,0.2-0.4,0.5-0.5,0.7h0.1l0.1-0.1c0.1,0.1,0.1,0.1,0.2,0.2
        C296.8,45.4,297,45.1,297.2,44.9z M300.1,34.9H300c-0.1,0.3-0.1,0.6-0.2,0.9h0.1C299.9,35.6,300,35.3,300.1,34.9z M307.5,28.9
        c0.3-0.5,0.5-0.9,0.8-1.4l0.7-1.8l0.4-0.8c0.2-0.6,0.4-1.1,0.5-1.7c0.1-0.8,0.3-1.6,0.5-2.4c0.1-0.7,0.2-1.3-0.2-1.9
        c0-0.1-0.1-0.2-0.1-0.2c-0.2,0.1-0.4,0.1-0.5,0.2l-0.3,0.4c-0.1,0.2-0.3,0.2-0.4,0.3l-0.8,0.8c-0.5,0.5-1,1.1-1.4,1.8
        c-0.2,0.2-0.3,0.4-0.4,0.6c-0.2,0.3-0.4,0.6-0.7,1c-0.1,0.2-0.2,0.5-0.4,0.8c-0.1,0.3-0.2,0.6-0.4,0.8c-0.2,0.3-0.3,0.5-0.5,0.8
        c-0.1,0.2-0.1,0.4-0.2,0.6c-0.2,0.2-0.2,0.3-0.4,0.5c-0.1,0.2-0.1,0.6-0.2,0.9c-0.2,0.4-0.4,0.9-0.5,1.4c-0.1,0.3-0.4,0.6-0.5,0.9
        h0.2c-0.2,0.2-0.1,0.7-0.5,0.8c0,0.1,0.1,0.1,0.1,0.2c-0.1,0.3-0.1,0.5-0.2,0.8c-0.1,0.4-0.3,0.6-0.4,1.1c-0.1,0.2-0.1,0.6-0.2,0.8
        c-0.1,0.3-0.2,0.5-0.4,0.8c-0.1,0.2,0.1,0.4,0.2,0.5c-0.1,0.2-0.2,0.4-0.2,0.5c-0.1,0.1-0.1,0.1-0.1,0.1c-0.2,0.4-0.1,0.7-0.2,0.9
        c0,0.1,0.1,0.1,0.1,0.1c0,0.1,0.1,0.1,0,0.2c-0.1,0.2-0.2,0.5-0.4,0.7c-0.1-0.1-0.1-0.1-0.1-0.2c-0.1,0.1-0.1,0.1-0.1,0.1
        c0.1,0.2,0.2,0.5,0.1,0.7c-0.1,0.3-0.2,0.5-0.5,0.5c0.4,0.1,0.4,0.1,0.2,0.4c0.1-0.1,0.1-0.1,0.1-0.2c0.2-0.2,0.3-0.4,0.5-0.6
        c0.4-0.4,0.8-1,1.1-1.5c0.2-0.2,0.5-0.6,0.8-1l0.8-1.1l1-1.3c0.3-0.4,0.6-0.9,0.9-1.3c0.2-0.4,0.5-0.7,0.7-1.1
        C306.7,30.5,307.1,29.7,307.5,28.9z M300.1,36.3c0.3-0.5,0.4-0.9,0.2-1C300.3,35.6,300.2,35.8,300.1,36.3z M300.5,35L300.5,35
        c0.2-0.7,0.4-1.3,0.5-2c0,0-0.1,0-0.1-0.1L300.5,35z M301.2,39c-0.1,0.2-0.2,0.4-0.4,0.6c-0.1,0-0.1-0.1-0.1-0.1
        c-0.1,0.2-0.1,0.2-0.1,0.4l0.2,0.1c0.2-0.1,0.2-0.4,0.5-0.6C301.3,39.2,301.3,39.1,301.2,39z M301,32.8h0.1
        c0.1-0.4,0.2-0.6,0.2-0.9c-0.1,0-0.1-0.1-0.1-0.1C301.2,32.1,301.1,32.4,301,32.8z M301.3,30.6L301.3,30.6c0.2-0.4,0.3-0.8,0.4-1.1
        c-0.1,0-0.1,0.1-0.1,0.1c-0.1,0-0.1,0.1-0.1,0.1C301.5,29.9,301.4,30.3,301.3,30.6z M302.6,27.1c-0.1,0.2-0.1,0.4-0.4,0.5
        C302.6,27.5,302.6,27.2,302.6,27.1z M302.6,28.7C302.6,28.7,302.6,28.7,302.6,28.7c0.1-0.2,0.3-0.5,0.4-0.8c0,0-0.1,0-0.1-0.1
        C302.9,28.1,302.7,28.4,302.6,28.7z M302.9,26.5l0.1-0.4c0.2-0.4,0.4-0.7,0.5-1.1c0.1-0.1,0.1-0.4,0.2-0.5c0.1-0.2,0.2-0.2,0.2-0.4
        c0.1-0.2,0.2-0.5,0.4-0.8c0.2-0.3,0.4-0.6,0.6-0.9c0.4-0.7,0.8-1.3,1.3-1.9c0.1-0.2,0.2-0.4,0.4-0.5v-0.2c-0.1,0.1-0.1,0.1-0.2,0.2
        c-0.1,0.2-0.3,0.5-0.5,0.7c-0.1,0.1-0.2,0.3-0.3,0.4c-0.1,0.1-0.1,0.3-0.2,0.5c-0.1,0.1-0.2,0.2-0.3,0.4c-0.1,0.2-0.2,0.4-0.4,0.5
        c0.1,0.1,0.1,0.2,0.1,0.2c-0.2,0.3-0.4,0.7-0.7,1c-0.1,0.4-0.4,0.5-0.4,0.8c-0.2,0.2-0.2,0.4-0.4,0.6c-0.1,0.4-0.3,0.7-0.4,1.1
        C302.7,26.3,302.9,26.4,302.9,26.5z M303.8,36.3c-0.1-0.1-0.5,0.1-0.5,0.2c-0.1,0.1,0,0.2-0.1,0.4C303.5,37,303.7,36.8,303.8,36.3z
         M310.4,24.4L310.4,24.4c-0.1,0.2-0.2,0.5-0.4,0.8c-0.2,0.4-0.2,0.6-0.4,0.9c-0.1,0.5-0.4,0.8-0.6,1.2c-0.2,0.4-0.4,0.8-0.6,1.2
        c-0.2,0.2-0.4,0.5-0.5,0.8c-0.1,0.2-0.2,0.4-0.3,0.6c-0.2,0.1-0.2,0.4-0.4,0.5c-0.2,0.1-0.3,0.4-0.4,0.7v0.2h0.2v-0.1
        c-0.1-0.1-0.1-0.1-0.1-0.1c0.1-0.2,0.2-0.2,0.2-0.4c0.1-0.1,0.2-0.2,0.2-0.3c0.2-0.4,0.5-0.6,0.7-0.9c0.1-0.2,0.2-0.4,0.3-0.5
        c0.1-0.2,0.2-0.3,0.2-0.5c0-0.1,0.1-0.1,0.1-0.1c0.4-0.1,0.3-0.4,0.4-0.6l-0.2,0.3c-0.1-0.4,0.2-0.6,0.5-0.7
        c-0.1-0.5,0.2-0.9,0.4-1.5C310.1,25.4,310.3,24.9,310.4,24.4z"/>
    <path d="M315.4,43c-0.1,0.1-0.1,0.1-0.2,0.1s-0.1,0-0.2,0.1c0.1,0.1,0.2,0.1,0.2,0.1c-0.1,0.1-0.1,0.1-0.2,0.2c0,0.1-0.1,0-0.2,0
        c0.1,0.2-0.1,0.3-0.2,0.4c-0.1,0.1-0.2,0.2-0.4,0.2c-0.1-0.1,0-0.2-0.1-0.3H314c0,0.1-0.1,0.1-0.1,0.1c0,0.2-0.1,0.2-0.2,0.2
        c-0.1,0-0.1,0.1-0.2,0.1c-0.1,0.1-0.1,0.2,0,0.2c0.2,0.1,0.1,0.2-0.1,0.2l-0.4,0.4L313,45l0.2-0.2c0,0,0-0.1,0.1-0.1
        c-0.4,0.2-0.7,0.5-0.6,0.8c0.1-0.1,0.1-0.1,0.1-0.1c0.1,0,0.2-0.1,0.4-0.1c0,0.1,0.1,0.1,0,0.2c-0.1,0-0.2,0-0.4,0.1
        c0.1,0.1,0.1,0.1,0.1,0.2c0.1-0.1,0.2-0.2,0.4-0.2c0-0.2,0.2-0.4,0.3-0.5c0.4-0.4,0.8-0.8,1.1-1.1c0.1,0,0.1-0.1,0.1-0.1l0.1,0.1
        c-0.2,0.4-0.5,0.7-0.8,1.1c-0.2,0.2-0.4,0.4-0.7,0.6c-0.1,0.1-0.2,0.2-0.3,0.4c-0.1,0.1-0.1,0.2-0.1,0.2c0.1-0.1,0.3-0.2,0.4-0.4
        c-0.1,0.2-0.4,0.4-0.6,0.6c-0.1,0.1-0.1,0.1-0.1,0.2c0.1,0,0.1,0,0.1,0.1c0.1-0.1,0.2-0.2,0.4-0.4c0,0.1,0.1,0.1,0,0.2
        c-0.2,0.2-0.4,0.4-0.5,0.5c-0.1,0.1-0.1,0.2-0.2,0.3l-0.2,0.2c-0.4,0.2-0.6,0.5-0.9,0.9c-0.2,0.2-0.4,0.4-0.6,0.5
        c-0.2,0.2-0.4,0.2-0.7,0.3c-0.2,0.1-0.5,0.2-0.8,0.4c-0.4,0.1-0.5-0.1-0.8-0.1c-0.4-0.1-0.6-0.5-0.9-0.7c-0.1-0.1-0.1-0.2-0.1-0.2
        c-0.1-0.1-0.1-0.2-0.2-0.4c-0.1-0.2-0.2-0.2-0.2-0.4c-0.1-0.7,0.1-1.5,0.3-2.3c0.1-0.5,0.2-1.1,0.4-1.6c0.2-0.8,0.4-1.5,0.6-2.3
        v-0.4c-0.1-0.2,0-0.3,0.2-0.3c0.1-0.1,0.2-0.1,0.4,0.1c0.1,0.2,0.4,0.4,0.5,0.5c0.2,0.1,0.4,0.3,0.5,0.5c0.1,0.2,0.1,0.4,0.1,0.6
        c0,0.2-0.1,0.5-0.2,0.7c-0.1,0.5-0.3,1-0.5,1.6c-0.1,0.2-0.2,0.4-0.2,0.5c-0.1,0.1-0.1,0.1-0.1,0.2c0.1,0.4-0.1,0.8-0.2,1.2
        c0,0.4-0.1,0.8-0.2,1.2c0.5-0.1,0.8-0.3,1.2-0.6c0.7-0.6,1.4-1.2,2-1.8c0.7-0.6,1.3-1.3,1.9-1.9c0.5-0.5,1.1-0.9,1.6-1.5
        C315.5,42.3,315.6,42.6,315.4,43z M309.2,38.2c-0.2-0.3-0.4-0.6-0.2-1.1c0.2-0.6,0.7-0.9,1.2-1.2c0.1-0.1,0.2-0.1,0.2-0.1
        c0.5-0.1,0.7,0.1,0.8,0.4c0.1,0.4,0.3,0.9,0.1,1.3c-0.2,0.5-0.5,0.7-0.9,1c-0.2,0.1-0.5,0.1-0.7-0.1
        C309.6,38.4,309.3,38.3,309.2,38.2z M312.6,45.5c-0.4,0-0.5,0.5-0.9,0.7v0.1l0.7-0.2c0-0.1-0.1-0.1-0.1-0.1c-0.1,0-0.1,0.1-0.2,0.1
        l-0.1-0.1C312.4,45.8,312.5,45.6,312.6,45.5z M313.7,45.4C313.8,45.4,313.8,45.4,313.7,45.4c0,0.2,0,0.3-0.1,0.5
        c-0.1-0.1-0.1-0.1-0.2-0.2L313.7,45.4z"/>
    <path d="M314.7,48.2c-0.1-0.1-0.4-0.3-0.7-0.4c-0.4-0.5-0.5-1.1-0.4-1.7c0.1-0.3,0.2-0.5,0.3-0.8c0.1-0.1,0.1-0.1,0.1-0.1
        c0.1-0.2,0.2-0.5,0.2-0.8l0.4-0.5c0.2-0.2,0.2-0.4,0.4-0.5c0.5-0.7,1-1.2,1.5-1.9c0.5-0.5,1.2-1.1,2-1.1c0.9,0.2,1.9,0.4,2,1.3
        c0.1,0.6-0.2,1-0.4,1.4c0.4-0.1,0.6-0.4,1.1-0.4c0.2,0.1,0.4,0.3,0.5,0.6c0,0,0.1,0.5-0.1,0.8c-0.1,0.1-0.1,0.1-0.1,0.2
        c-0.1,0.6-0.1,1.2,0.1,1.8c0.1,0.2,0.2,0.4,0.4,0.5c0.1,0.1,0.2,0.1,0.3,0c0.1-0.1,0.3-0.1,0.5-0.1c0.7-0.3,1.3-0.8,1.9-1.2
        c0.5-0.4,1.2-0.7,1.8-1.1c1-0.6,0.9-0.5,1.9-1.2c0.3-0.2,0.6-0.5,1.1-0.7l0.1,0.1l-0.4,0.5c0.1,0.2,0.1,0.2,0.4,0.1
        c0-0.1,0-0.2,0.2-0.2c-0.4,0.6-1.1,1-1.6,1.3c-0.2,0.2-0.5,0.3-0.6,0.4c-0.1,0.1-0.3,0.4-0.5,0.4c-0.1,0.1-0.2,0.1-0.3,0.1
        c0,0,0-0.1-0.1-0.1c0.1,0,0.2-0.1,0.2-0.2c0.2-0.1,0.2-0.2,0.2-0.4c0-0.1-0.1-0.1-0.1-0.1c-0.4,0.2-0.5,0.4-0.8,0.6
        c-0.5,0.2-0.9,0.5-1.3,0.8c-0.1,0.1-0.2,0.2-0.4,0.2v0.1c0.1-0.1,0.2-0.1,0.4-0.1c0.2-0.1,0.3-0.1,0.4-0.1c0-0.1-0.1-0.1-0.1-0.1
        c0.3-0.1,0.5-0.1,0.8-0.3c0.2-0.2,0.5-0.2,0.7-0.4c0,0.1-0.1,0.2-0.2,0.3c-0.4,0.2-0.7,0.4-1,0.6c-0.1,0.1-0.2,0.1-0.2,0.2
        c-0.1,0.1-0.2,0.1-0.3,0.2c0.1,0.1,0.2,0.1,0.3,0.1l-0.1,0.1c-0.1,0.1-0.2,0.1-0.3,0.1v0.2c0.2-0.1,0.5-0.2,0.7-0.4v0.1
        c-0.2,0.2-0.5,0.4-0.7,0.5c-0.4,0.4-0.7,0.5-1.1,0.8c-0.2,0.1-0.4,0.1-0.6,0.2c-0.1,0.1-0.3,0.1-0.4,0.1c-0.1,0-0.2,0.1-0.4,0.1
        c-0.2,0-0.5,0.1-0.7,0.1c-0.1-0.1-0.4-0.1-0.4-0.1c-0.1-0.1-0.2-0.2-0.4-0.2c-0.2-0.4-0.5-0.5-0.7-0.9c-0.2-0.2-0.2-0.4-0.4-0.5
        c-0.1-0.1-0.1-0.1-0.1-0.2c-0.3,0.2-0.3,0.6-0.6,0.6c-0.1,0.1-0.1,0.2-0.2,0.2c-0.5,0.4-1.2,0.9-1.9,1.2c-0.7,0.4-1.4,0.4-2,0.1
        C315,48.2,314.9,48.2,314.7,48.2z M316.7,46.8c0.5-0.2,0.9-0.5,1.3-1c0.6-0.7,0.9-1.2,1.6-1.9c0.1,0,0.2-0.2,0.2-0.2h-0.1
        c-0.9-0.1-0.6-1.9-0.5-2c-1.3,0.2-2.7,2.2-3.2,3c-0.4,0.7-0.8,1.4-1,2.2C315.5,47,316.2,47,316.7,46.8z M327.6,44.3
        c0-0.2,0.1-0.2,0.2-0.2c0.1-0.1,0.2-0.1,0.4-0.2c0.1-0.1,0.2-0.1,0.4-0.1v-0.2c0.1-0.1,0.1-0.1,0.2-0.2c0-0.1,0-0.1-0.1-0.1
        c-0.1,0.1-0.3,0.2-0.5,0.4c-0.3,0.2-0.8,0.5-0.9,0.6c0.1,0.1,0.2,0.1,0.4,0.2C327.5,44.4,327.6,44.3,327.6,44.3z"/>
    <path d="M327.3,48.2c0,0-0.1-0.1-0.2-0.1l-0.2,0.2c-0.2-0.4-0.4-0.8-0.2-1.4l0.4-1.8c0.1-0.5,0.2-0.9,0.2-1.4
        c0.1-0.6,0.3-1.2,0.4-1.8s0.2-1.1,0.3-1.8c0.1-0.1,0.1-0.2,0.1-0.3c0.1-0.1,0.2-0.2,0.4-0.2c0.4-0.2,0.8,0.1,0.9,0.7
        c0.1,0.4,0.2,0.7,0.1,1.1c0,0.1-0.1,0.2-0.1,0.5c0.1-0.2,0.3-0.3,0.4-0.4c0.2-0.4,0.5-0.6,0.8-0.9c0.4-0.5,0.8-0.9,1.3-1.2
        c0.5-0.4,1.1-0.4,1.6-0.1c0.2,0.2,0.4,0.4,0.6,0.5c0.1,0.1,0.1,0.1,0.2,0.1c0.2,0.1,0.2,0.3,0.4,0.5l-0.1,0.2c0,0-0.2,0.1-0.8-0.1
        c-0.2,0-0.5-0.1-0.8,0.2c-0.2,0.2-0.4,0.3-0.7,0.5c-0.1,0.1-0.2,0.2-0.3,0.4c-0.2,0.2-0.5,0.4-0.7,0.6c-0.2,0.4-0.6,0.7-0.9,1.1
        c-0.3,0.4-0.6,0.8-0.9,1.3c-0.4,0.6-0.6,1.1-0.8,1.6c-0.2,0.4-0.2,0.8-0.4,1.2c-0.1,0.3-0.1,0.6-0.2,0.9c-0.1,0.5-0.2,0.6-0.6,0.5
        C327.4,48.8,327.3,48.6,327.3,48.2z M330.4,41.9C330.4,41.9,330.4,41.9,330.4,41.9c0.5-0.5,0.9-1.1,1.3-1.5
        c-0.1-0.4-0.2,0.2-0.4,0.1c-0.1,0.2-0.2,0.4-0.2,0.4c-0.4,0.1-0.6,0.6-1,0.9c-0.2,0.2-0.4,0.5-0.4,0.9
        C329.9,42.3,330.1,42.1,330.4,41.9z M331.1,41.9c0.2-0.1,0.4-0.4,0.6-0.6c-0.2,0.1-0.5,0.2-0.6,0.4c-0.2,0.2-0.4,0.4-0.5,0.7
        C330.9,42.5,330.9,42,331.1,41.9z"/>
    <path d="M330,74.5c-1.3-0.2-2-0.9-2.8-2c-0.2-0.4-0.5-0.9-0.7-1.4c-0.4-0.6-0.5-1.4-0.3-2.2c0-0.4,0-0.5-0.1-0.6
        c0.1-0.7,0.2-1.2,0.2-1.7c0.4-1.4,0.9-2.8,1.7-4.2c0.7-1.2,1.5-2.3,2.3-3.4c0.8-1,1.8-1.9,2.6-2.9c1-0.8,1.9-1.7,2.9-2.5
        c0.5-0.4,1.1-0.8,1.6-1.2s0.8-0.5,1.1-0.8c0.4-0.2,0.8-0.5,1.1-0.7c0.5-0.2,0.4-0.5,0.4-0.9c0.1-0.4,0.2-0.8,0.2-1.2
        c0.1-0.6,0.2-1.1,0.2-1.7c0.2-0.9,0.4-1.8,0.4-2.5c-0.1-0.3,0.1-0.5,0.1-0.8c-0.1-0.1-0.2-0.1-0.2-0.2c0,0.1-0.1,0.2-0.1,0.2
        c-0.6,0.4-1.1,1-1.8,1.6c-0.5,0.2-0.8,0.7-1.3,0.9c-0.4,0.2-0.5,0.5-0.9,0.6c-0.2,0-0.4,0.1-0.5-0.1l0.3-0.2
        c-0.5,0-0.3-0.1-0.5-0.4l0.1-0.1h-0.1c-0.1,0.1-0.1,0.2-0.1,0.2c0,0-0.2-0.1-0.2-0.1c-0.1-0.2-0.3-0.6-0.4-0.8
        c-0.1-0.5,0.3-0.7,0.3-1c0.2-0.5,0.2-1.2,0.3-1.8c0.1-0.3,0.1-0.8,0.2-1.1c0.1-0.2,0.1-0.5-0.1-0.8c-0.1-0.1-0.1-0.4-0.1-0.5
        c0.2-0.2,0.2-0.3,0.5-0.3c0.2,0.1,0.2,0.1,0.5,0.2c0.2,0.1,0.5,0.5,0.8,0.7c0,0,0.1,0.1,0,0.3c-0.1,0.2,0,0.6-0.1,1.1
        c-0.1,0.3-0.2,0.9-0.4,1.4c0,0.4-0.1,0.5-0.2,0.8c0.2-0.1,0.5-0.4,0.6-0.5c0.4-0.2,0.6-0.7,1-1c0.4-0.2,0.7-0.6,1.1-0.9
        c0.5-0.4,0.9-0.8,1.4-1.1c0.2-0.3,0.4-0.4,0.6-0.2c0.1,0.2,0.4,0.2,0.5,0.2c0.1,0,0.2,0.1,0.4,0.1v0.1l0.1,0.3
        c0.3,0.1,0.1,0.3,0.5,0.3l-0.1,0.5c-0.1,0.3-0.2,1-0.2,1.1v0.1c0.1,0.5-0.2,1.1-0.2,1.4c-0.1,0.3-0.1,0.6-0.1,0.9
        c0,0.1-0.1,0.3-0.1,0.3c-0.2,0.1-0.2,0.4-0.1,0.5c0.2,0.4-0.1,0.8,0,1.1c-0.1,0.1-0.2,0.4-0.2,0.5c-0.1,0.4-0.1,0.7-0.2,1.1
        l-0.1,0.1c0.1,0.1,0.2,0.1,0.3,0c0.9-0.5,1.6-0.8,2.2-1.3c0.5-0.2,0.7-0.4,1.3-0.7l0.8-0.4c0.4-0.1,1.3-0.7,1.5-0.7l0.1,0.5
        c-0.2,0.4-0.6,0.8-0.7,0.9c-0.1,0.1-0.4,0.4-0.4,0.4c-0.3,0.2-0.6,0.2-0.9,0.6l-0.9,0.5l0.1,0.1c-0.3,0.1-0.5,0.6-0.8,0.4
        c-0.4,0.2-0.7,0.4-0.9,0.6l0.1,0.2c-0.1,0.1-0.2,0.1-0.4,0.1c-0.1,0.1-0.1-0.1-0.6,0.3c-0.1,0.1-0.1,0.2-0.2,0.3
        c-0.1,0-0.1-0.1-0.1-0.1l-0.2,0.1c-0.1,0.3-0.2,0.5-0.4,0.8c-0.1,0.1-0.1,0.5-0.2,0.5c-0.1,0.2-0.1,0.2-0.1,0.4h0.1
        c-0.1,0-0.2,0.1-0.4,0.1c0.4,0.5,0.2,1.1,0.1,1.8c-0.1-0.2-0.1-0.4-0.2-0.5v0.5h0.2c0,0.2-0.1,0.2-0.4,0.2l0.2,0.1
        c0.2,0.1,0.2,0.2,0.1,0.5c0,0.1-0.1,0.2-0.1,0.4c0.1,0.2,0.1,0.5-0.5,0.5c0.4,0.2,0.3,0.7,0.2,0.9c-0.1,0.4-0.2,0.5-0.5,0.8
        c0.4,0.2,0.3,0.9,0,1.1c0.1,0.3,0,0.5-0.2,0.6c-0.2-0.1-0.2-0.2-0.4-0.3c0.2-0.2-0.1-0.7,0.2-0.7c0,0-0.1-0.1-0.1-0.2
        c0.1-0.2,0.1-0.4,0.2-0.6c0.2-0.4,0.1-0.7,0.2-1.1c0-0.2,0.1-0.7,0.2-0.8c0-0.4,0-0.7,0.1-1.1c-0.1-0.1,0.1-0.4,0.1-0.5
        c0-0.3-0.1-0.5,0.1-0.8v-0.2c0.2-0.2,0.2-0.4,0.2-0.6c0-0.2,0.1-0.2,0.1-0.3c-0.2,0-0.2,0-0.1-0.1c-0.2,0.2-0.4,0.4-0.3,0.7
        c-0.1,0.4-0.1,0.8-0.2,1.3c0.1,0.2-0.1,0.5-0.1,0.8c-0.1,0.4-0.1,0.9-0.2,1.4c-0.2,0.5-0.3,1.1-0.4,1.6c0,0.1,0.1,0.2,0.1,0.4
        c-0.1,0.4-0.2,0.6-0.4,0.9c-0.1,0-0.4-0.2-0.5-0.2c0.2,0.4,0.1,0.7,0.1,0.7v0.4c0,0-0.2,0-0.3,0.1c0,0-0.2,0-0.2,0.1h0.1
        c0,0,0.2,0,0.4-0.1c0,0.1-0.1,0.2-0.2,0.4c0,0.2-0.2,0.5-0.2,0.8c-0.1,0.1-0.2,0.2-0.2,0.4l-0.1,0.1c0,0.1,0,0.5-0.2,0.5l0.2,0.1
        c-0.2,0.2-0.2,0.5-0.4,0.5v0.2c-0.1,0.3-0.1,0.6-0.2,0.8c-0.1,0.2-0.3,0.2-0.4,0.3c0,0,0.5,0,0.1,0.3c0,0.3-0.1,0.4-0.2,0.7
        c0,0.2-0.2,0.9-0.5,1.1c0.3,0.1,0.1,0.2,0,0.4c-0.2,0.7-0.5,1.3-0.8,2c-0.1,0.1-0.2,0.3-0.2,0.4c-0.1,0.1-0.1,0.2-0.1,0.2
        c0.1,0,0.2,0,0.4-0.1c0-0.1,0-0.1-0.1-0.2h0.2v-0.4h0.1c0,0.2,0.2,0.2,0.2,0.3c-0.1,0.1-0.2,0.1-0.2,0.2c-0.1,0-0.1,0.2-0.1,0.2
        c-0.1,0-0.2,0.1-0.3,0.1l-0.1-0.1c-0.2,0.1-0.4,0.2-0.4,0.4c-0.2,0.2-0.4,0.7-0.6,1c-0.1,0.2-0.1,0.2-0.1,0.2
        c-0.3,0.1-0.2,0.2,0,0.5c-0.2,0.1-0.4,0.1-0.7,0.3c0.3,0.2,0.3,0.3,0.4,0.2v-0.1c0.1,0,0.1-0.2,0.4-0.2l-0.1,0.2
        c0.1,0,0.2,0.2,0.2,0.2c-0.1,0.1-0.1,0.2-0.4,0.3c-0.1,0.2-0.4,0-0.6,0l-0.1,0.1c0,0-0.1,0-0.3,0.2c0,0-0.1,0.2,0.2,0.1l-0.2,0.2
        h0.2c0,0.1,0.2,0.1,0.2,0.1c-0.4,0.1-0.6,0.2-1,0.4c0.2,0.4-0.2,0.1-0.2,0.4c-0.4,0.4-1.2,0.1-1.7,0.2
        C330.7,74.7,330.3,74.7,330,74.5z M326.5,68.5c0-0.4,0.2-0.6,0.2-1c0-0.4,0-0.7,0.2-1.1c0-0.4,0.2-0.5,0.4-0.8
        c0.2-0.4,0.4-0.9,0.6-1.4c0.2-0.2,0.2-0.4,0.2-0.6c0.2-0.1,0.4-0.2,0.4-0.5c0-0.1,0-0.1,0.1-0.1c0.1-0.1,0.4-0.2,0.5-0.5
        c-0.1-0.2,0.1-0.2,0.2-0.2c0-0.2,0.1-0.2,0.1-0.2c0.4,0,0-0.1,0.2-0.2c0,0,0.1-0.2,0.1-0.3c0.2-0.2,0.4-0.5,0.5-0.7
        c0.2-0.4,0.6-0.7,0.9-1c0.1-0.2,0.4-0.5,0.6-0.8v-0.2c0.2-0.1,0.4-0.1,0.4-0.2c0-0.1,0.1-0.1,0.1-0.3c0.3-0.2,0.5-0.2,0.6-0.5
        c0.4-0.5,0.9-0.8,1.3-1.3c0.2-0.1,0.5-0.4,0.7-0.5c0.2-0.4,0.4-0.4,0.5-0.5c0,0,0.2,0,0.4-0.1c0.1-0.4,0.6-0.4,0.9-0.8
        c0.2-0.2,0.5-0.5,0.7-0.5c0.4-0.2,0.8-0.6,1.1-1c0.6-0.4,0.8-0.7,1.3-1c0.2-0.1,0.2-0.2,0.4-0.4h-0.2c-0.2,0.1-0.4,0.2-0.7,0.4
        c-0.5,0.2-1,0.7-1.5,1.1c-0.5,0.2-1,0.6-1.6,1.1c-0.7,0.5-1.5,1.2-2.2,1.9c-0.8,0.7-1.4,1.4-2.2,2c-0.5,0.6-0.9,1.3-1.4,1.8
        c-0.2,0.4-0.5,0.5-0.6,1c-0.2,0.2-0.4,0.5-0.6,0.9c-0.5,0.7-0.9,1.3-1.3,2c-0.3,0.4-0.4,0.9-0.7,1.3c-0.2,0.5-0.4,1-0.6,1.6
        c-0.1,0.4-0.1,0.7-0.2,1c0.1,0.3,0.1,0.7,0.1,1.1v0.2C326.6,68.8,326.6,68.7,326.5,68.5z M327.1,69.8c-0.1-0.2,0-0.3-0.1-0.5v-0.1
        c-0.1-0.1-0.1-0.4-0.1-0.5c-0.1,0.4-0.1,0.6-0.2,1.1C326.9,69.8,327.1,69.8,327.1,69.8z M327.2,67.6c0-0.2,0.1-0.5,0.2-0.7
        l-0.1-0.2c-0.3,0.7-0.3,1.5-0.1,1.8C327.4,68.2,327.4,67.9,327.2,67.6z M327.6,67.2c-0.2,0.2-0.2,0.4-0.2,0.5
        C327.5,67.6,327.5,67.4,327.6,67.2z M331.2,73.2c0.7-0.1,1.4-0.7,2-1.2c0.6-0.6,1.3-1.3,1.6-2.1c0.4-0.8,0.8-1.5,1.2-2.2
        c0.2-0.5,0.3-1,0.5-1.5c0.5-1.5,1.1-2.9,1.6-4.4c0.1-0.5,0.2-1,0.4-1.6l0.2-0.1c0,0-0.1-0.1,0.1-0.1h-0.4c0-0.2,0.2-0.4,0.2-0.4
        c0.1-0.8,0.2-1.5,0.5-2.3c0.1-0.8,0.2-1.9,0.5-2.9c0-0.3,0-0.6,0.1-0.9c-0.2,0.1-0.5,0.1-0.5,0.3c-0.2,0.4-0.5,0.6-0.8,0.6v0.1
        c-0.2,0.1-0.4,0.3-0.5,0.3c-0.1,0.2-0.4,0.2-0.5,0.4c-0.3,0.4-0.8,0.8-1.3,0.9c0,0-0.1,0-0.1,0.1c-0.2,0.2-0.3,0.5-0.8,0.5
        c-0.2,0-0.4,0.1-0.6,0.1c0.2-0.2,0.2-0.3,0.2-0.3c0.4-0.2,0.5-0.6,1-0.8c0.4-0.2,0.6-0.4,0.9-0.7c0.1,0,0.1-0.2,0.1-0.2
        c0.2-0.2,0.2-0.2,0.4-0.2c0.4-0.2,0.8-0.5,1.1-0.8c0.3-0.3,0.7-0.5,0.9-0.8c0.4,0,0.4-0.1,0.5-0.2l0.1-0.1
        c-0.2,0.1-0.2,0.1-0.5,0.2c-0.8,0.5-1.6,1.2-2.5,1.8c-0.1,0.2-0.1,0.2-0.1,0.4h-0.1c-0.6,0.4-1.2,0.8-1.8,1.3
        c-0.5,0.4-1,0.9-1.5,1.5c-0.4,0.2-0.6,0.5-0.8,0.8c-0.2,0-0.2,0.1-0.4,0.2c-0.1,0.2-0.2,0.3-0.4,0.5c0.2,0,0.2-0.2,0.4-0.5l0.4-0.1
        c0.2-0.4,0.8-0.8,1.2-1.2c0.3-0.4,0.4-0.4,0.4,0c0.2,0.1,0.2,0,0.4-0.2c0.1-0.2,0.2-0.5,0.5-0.3c0.2,0,0.2-0.2,0.2-0.2
        c0.4,0.2-0.1,0.3,0.1,0.4c-0.1,0-0.2,0-0.4,0.1c-0.1,0-0.1,0.2-0.2,0.4c-0.1,0-0.3,0.1-0.2,0.2c-0.4,0.2-0.6,0.8-1.1,0.8l-0.2,0.1
        h0.2c-0.1,0.2-0.2,0.2-0.2,0.3c-0.1,0.2-0.4,0.4-0.5,0.5c0,0.1-0.1,0.2-0.4,0.2c-0.1,0.4-0.2,0.4-0.3,0.7c0,0.2-0.1,0.2-0.2,0.2
        c-0.3,0.5-0.8,0.9-1.1,1.5c-0.1,0.2-0.4,0.6-0.4,0.8c-0.1,0.2-0.3,0.5-0.5,0.5l-0.1,0.1c0.1,0,0.1,0.2,0.2,0.2
        c-0.1,0.1-0.2,0.2-0.4,0.5c-0.2,0.1-0.2,0.5-0.5,0.7c-0.2,0.3-0.2,0.6-0.3,0.9c-0.2,0.2-0.2,0.6-0.4,0.9c0,0.2-0.1,0.6-0.2,0.8
        c-0.2,0.6-0.2,1.1-0.2,1.6c0,0.5,0.1,0.8,0.1,1.3l0.2,0.1c-0.2,0-0.3,0.1-0.4,0.1c0.2,0.2,0.2,0.2,0.2,0.2
        c-0.1,0.1-0.1,0.1-0.2,0.1c0.1,0.1,0.2,0.1,0.2,0.3c0.2-0.1,0.2-0.1,0.2,0.2c0.1,0.1,0.2,0.2,0.4,0.3c0,0.4,0.1,0.5,0.2,0.7
        c0,0.2,0.1,0.4,0.4,0.5c0,0,0,0.1,0.1,0.2h0.1l0.1,0.1C329.8,73.6,330.5,73.6,331.2,73.2z M328.2,66c-0.1-0.4,0.5-0.4,0.3-0.7
        c0.2-0.3,0-0.8,0.5-0.8c-0.4-0.2-0.4,0.2-0.5,0.4c0.2-1.1,1-1.6,1.3-2.5h-0.1c-0.3,0.4-0.7,0.8-0.9,1.2c-0.2,0.5-0.5,1-0.5,1.8
        c-0.2,0.1-0.1,0.4-0.2,0.7C328.1,66,328.2,66,328.2,66z M329.2,63.8c-0.2,0.1-0.1,0.2-0.4,0.5C329,64.3,329.2,64.3,329.2,63.8z
         M329.5,63.4c-0.1-0.1-0.2,0-0.2,0.2v0.2C329.3,63.6,329.5,63.5,329.5,63.4z M330.1,61.9c0.1-0.2,0.2-0.5,0.5-0.6
        c0.3-0.3,0.4-0.5,0.6-1c0.2-0.2,0.2-0.4,0.5-0.7c-0.3,0-0.5,0.2-0.5,0.7c0,0-0.2,0-0.2,0.1c-0.2,0.4-0.5,0.7-0.7,1
        c-0.1,0.3-0.2,0.5-0.4,0.9C329.9,62,329.9,62,330.1,61.9z M331,74h-0.5C330.7,74.1,330.9,74.2,331,74z M331.9,60.3
        c-0.1-0.1-0.1-0.1-0.2-0.2c-0.1,0.1-0.1,0.2-0.2,0.3C331.6,60.4,331.7,60.3,331.9,60.3z M331.8,73.7c0.4,0.2,1.8-0.8,1.8-1.3
        c0.2,0,0.2,0,0.2,0.1c0-0.1,0-0.1,0.1-0.1c-0.1-0.2-0.1-0.2-0.3-0.2l-0.1,0.1c-0.3,0.1-0.4,0.4-0.5,0.4c-0.2,0.4-0.4,0.5-0.7,0.7
        c-0.1,0.2-0.4,0.2-0.6,0.3v-0.1c0,0.1-0.1,0.2-0.1,0.4C331.7,73.9,331.7,73.7,331.8,73.7z M332.5,59.4v-0.2
        c-0.2,0.1-0.3,0.2-0.4,0.2c0.1,0.1,0.1,0.1,0.1,0.1C332.3,59.5,332.3,59.4,332.5,59.4z M333.3,58.3c-0.4,0.1-0.4,0.4-0.6,0.5
        C333,58.7,333.3,58.6,333.3,58.3z M334.3,73.3l-0.1,0.2c-0.2,0.1-0.5,0-0.8,0C333.8,73.4,334.1,73.3,334.3,73.3z M334.8,72.1
        c0.2-0.1,0.2-0.2,0.4-0.4c0.1-0.2,0.4-0.4,0.5-0.5l0.1-0.2c-0.1-0.2-0.1-0.3-0.1-0.3h-0.4c0.2-0.1,0.2-0.2,0.3-0.4
        c0.1,0.1,0.1,0.1,0.2,0.3c0.6-0.8,1.2-1.8,1.4-2.7c0.1-0.2,0.2-0.5,0.4-0.7c0.1-0.1,0.2-0.1,0.3-0.2c0.2,0.1,0.2,0.1,0.2,0.2
        c-0.1,0.1-0.1,0.4-0.4,0.2c0,0.2,0.1,0.4-0.1,0.5c0.2,0.2,0.1,0.2-0.1,0.3c-0.2,0.1-0.2,0.1-0.2,0.4c0.1-0.2,0.2-0.2,0.4-0.2
        c-0.3,0.4-0.4,0.8-0.6,1.3h-0.3l-0.1,0.1c0.2,0.4-0.1,0.6-0.2,0.9c-0.2,0.2-0.5,0.6-0.8,0.8l-0.5,0.7c-0.1,0.2-0.4,0.2-0.6,0.1
        L334.8,72.1z M335.7,56.1c-0.2,0.2-0.4,0.3-0.5,0.4C335.4,56.4,335.7,56.3,335.7,56.1z M335.8,68.8c0,0,0.1-0.1-0.1-0.1
        c-0.1,0.2-0.1,0.4-0.1,0.5C335.7,69,335.7,68.9,335.8,68.8z M337,67.7L337,67.7c0.1,0.1,0.1,0.1,0.1,0.2c-0.1,0.3-0.1,0.4-0.2,0.7
        c-0.1,0.1-0.1,0.1-0.2,0.1C336.7,68.4,336.8,68.1,337,67.7z M337.5,67.2c-0.2,0.1-0.3,0.2-0.4,0.2
        C337.1,67.2,337.2,67.1,337.5,67.2z M337.3,66.9l0.2-0.2c-0.2-0.1-0.2-0.1-0.4-0.1c0.4-0.1,0.4-0.3,0.6-0.4
        c0.1,0.1,0.1,0.2,0.1,0.2c0.1-0.2,0.1-0.4,0.2-0.8c-0.1,0.2-0.2,0.2-0.4,0.2c0.2-0.2,0.3-0.2,0.6-0.2l-0.1-0.1
        c0.1-0.3,0.4-0.3,0.6-0.2v0.1c-0.2,0.4-0.4,0.8-0.5,1.3c-0.1,0.2-0.2,0.5-0.5,0.4C337.8,67.1,337.5,67.1,337.3,66.9z M337.9,65.3
        c0-0.2,0.1-0.4,0.5-0.5c-0.2,0.3-0.2,0.5-0.4,0.7c0,0,0.1,0.1-0.1,0.1C337.9,65.6,337.9,65.5,337.9,65.3z M338.6,64l-0.4,0.5
        C338.3,64,338.3,64,338.6,64z M338.4,65c0.1-0.1,0.2-0.1,0.2-0.1c-0.1-0.2-0.3-0.2-0.1-0.2c0.1-0.1,0.1-0.2,0.1-0.5
        c0.2-0.2,0.2-0.5,0.3-0.8c0.1-0.2,0.1-0.2,0.1-0.2c0.1,0,0.3,0,0.4-0.1c0.1,0.2,0.1,0.3-0.1,0.3c-0.2,0.2-0.4,0.2-0.4,0.4h0.2
        c0.2,0,0.2,0,0.2,0.1c0.1,0.1,0,0.2-0.2,0.4c-0.1,0.3-0.1,0.5-0.3,0.8C338.6,65,338.5,65,338.4,65z M338.6,63.2
        c0-0.1-0.1-0.2,0-0.4c-0.1-0.1,0-0.2,0-0.2c0.2-0.1,0.2-0.1,0.3-0.2l-0.1,0.1l-0.1-0.1c0.2-0.2,0.3-0.2,0.4-0.5c0,0,0.2,0,0.1,0.2
        c-0.2,0.4-0.4,0.9-0.4,1.4C338.6,63.3,338.5,63.3,338.6,63.2z M339.2,53.5H339c-0.1,0.2-0.3,0.3-0.4,0.5
        C338.8,53.8,338.9,53.7,339.2,53.5z M338.9,63c0.4-0.4,0.1-0.8,0.4-1.2c0.1-0.2-0.1-0.3-0.1-0.4c0,0-0.1,0-0.1,0.1H339v-0.1
        c-0.1-0.2-0.1-0.2-0.1-0.4c0.1-0.2,0.3-0.2,0.4-0.4c0.1,0.1,0.1,0.2,0.1,0.2c-0.1,0.2-0.1,0.4,0.1,0.5c-0.1-0.4,0.1-0.5,0.1-0.9
        c0-0.1,0.1-0.3,0-0.4c0.2,0,0.2-0.1,0.5-0.1c-0.1,0.1-0.1,0.2-0.1,0.4c0,0,0.1-0.2,0.3-0.2c0,0.4,0.1,0.7-0.2,1.1
        c0,0.2-0.1,0.2-0.1,0.2c0,0.3-0.1,0.5-0.1,0.8h-0.3c0,0,0.1,0.1,0.2,0.1c-0.1,0.2-0.3,0.2-0.4,0.5h0.1l0.1-0.2v0.5
        C339.3,63.2,339.1,63.2,338.9,63z M339.3,59.5c0.1-0.1,0.2-0.2,0.2-0.4c0.2-0.1,0.2-0.2,0.2-0.4c-0.3-0.1-0.3-0.1,0-0.4
        c-0.1-0.1-0.2-0.4,0-0.5c0.1-0.3,0.1-0.5,0.1-0.8c0.1-0.1,0.1-0.2,0.1-0.4c0.1-0.1,0.1-0.2,0.1-0.2c-0.1-0.1,0.1-0.3,0.1-0.3
        s0.2-0.2,0-0.2c-0.1-0.2,0.2-0.4,0.1-0.6c0.1-0.3,0.3-0.4,0.1-0.7c0-0.1,0-0.2,0.2-0.4l-0.1-0.2c0-0.3,0.1-0.5,0.1-0.8
        c0-0.2-0.1-0.2-0.1-0.2c0,0.2-0.1,0.4-0.1,0.4c0.1,0.1,0.1,0.2,0,0.4c0,0.2-0.1,0.4,0,0.5c-0.1,0.1-0.1,0.2-0.2,0.4
        c0.1,0.4-0.2,0.6-0.1,0.9c-0.1,0.2,0,0.4-0.1,0.7c-0.1,0.3-0.1,0.5-0.1,0.8c0,0.2-0.1,0.2-0.3,0.2c-0.1,0.2,0.2,0.2,0.2,0.2
        c-0.2,0.2-0.2,0.7-0.3,1c0.1,0.4-0.1,0.4-0.4,0.4c0.1,0,0.2,0.2,0.2,0.2c0,0.1,0,0.3-0.1,0.4l0.1,0.1
        C339.2,59.5,339.3,59.5,339.3,59.5z M339.3,60.3c0,0-0.1-0.1,0.1-0.2c0,0,0-0.1,0.1-0.1c0,0,0.1,0.1,0.1,0.2
        c-0.1,0.1-0.1,0.4-0.2,0.5c0,0-0.1,0-0.3,0.1C339,60.6,339.2,60.5,339.3,60.3z M339.6,43.4c0,0.1-0.1,0.1-0.1,0.2
        c-0.2,0.1-0.2,0.2,0.1,0.1C340,43.6,339.6,43.4,339.6,43.4z M340.2,43.1c0,0.1,0.2,0.1,0.3,0.1c0.1-0.1,0.1-0.4,0.4-0.3
        c0,0,0.1,0,0.1-0.1c0.2-0.1,0.2-0.5,0.2-0.6c0,0,0-0.2-0.1-0.2c-0.2,0.2-0.2,0.5-0.4,0.6c-0.1,0.1-0.1,0.1-0.3,0
        c-0.1,0-0.2,0-0.3,0.2c-0.1,0-0.2,0.3-0.2,0.3c-0.1,0.1,0,0.2,0,0.2C340,43.2,340,43.2,340.2,43.1z M341,51.2
        c-0.4,0.1-0.4,0.1-0.4,0.2C340.6,51.3,340.7,51.3,341,51.2z M341,50.1c0-0.4,0.4-0.7,0.1-1.1c0.1-0.4,0.1-0.9,0.2-1.3
        c0-0.3,0.1-0.7,0.2-1c0-0.3-0.1-0.7-0.1-1.1v-0.3c-0.1,0.3-0.1,0.7-0.2,0.9c-0.1,0.8-0.2,1.6-0.3,2.3l-0.1,0.2
        c0,0.1,0.1,0.2-0.1,0.4c-0.2,0.1,0,0.2,0.1,0.4l-0.1,0.1c-0.2,0.2-0.1,0.6-0.3,1.1C341,50.6,341.2,50.3,341,50.1z M341.5,50.3
        c0.1-0.2-0.1-0.5,0.1-0.7h-0.1c-0.1,0.1-0.2,0.4-0.2,0.7H341.5z M341.5,49.2c0,0-0.1,0.1-0.1,0.4C341.6,49.4,341.6,49.3,341.5,49.2
        z M345.7,48.5c-0.1-0.2-0.1-0.2-0.1-0.3c-0.5,0.4-1.4,0.7-2,1.1c-0.5,0.2-1.1,1.1-1.9,1.2c0.2,0.2,0.2,0.3,0.2,0.3
        C343.6,50.1,344.5,49.2,345.7,48.5z"/>
</g>
</svg>
