<svg xmlns="http://www.w3.org/2000/svg" viewBox="0 0 100 125"><g><path d="M45.792,95.375c10.398,0,18.857-8.459,18.857-18.856V41.992c0-10.398-8.459-18.857-18.857-18.857   c-10.397,0-18.856,8.459-18.856,18.857v34.527C26.936,86.916,35.395,95.375,45.792,95.375z M45.792,49.678   c-1.021,0-1.852-0.831-1.852-1.853v-9.673c0-1.021,0.831-1.853,1.852-1.853c1.022,0,1.853,0.831,1.853,1.853v9.673   C47.646,48.847,46.814,49.678,45.792,49.678z M28.436,41.992c0-9.318,7.385-16.922,16.606-17.319v10.219   c-1.487,0.343-2.602,1.671-2.602,3.261v9.673c0,1.59,1.115,2.919,2.602,3.261v4.502H31.195v1.5h29.197v-1.5h-13.85v-4.502   c1.488-0.343,2.603-1.671,2.603-3.261v-9.673c0-1.59-1.115-2.918-2.603-3.261V24.672c9.222,0.397,16.607,8.002,16.607,17.319   v34.527c0,9.57-7.787,17.356-17.357,17.356c-9.57,0-17.356-7.786-17.356-17.356V41.992z"/><rect x="63.15" y="4.625" width="1.5" height="5.056"/><rect x="63.15" y="17.896" width="1.5" height="5.056"/><rect x="68.007" y="13.039" width="5.057" height="1.5"/><rect x="54.736" y="13.039" width="5.055" height="1.5"/><rect x="56.68" y="8.346" transform="matrix(0.7072 0.7071 -0.7071 0.7072 23.7701 -39.1992)" width="5.055" height="1.5"/><rect x="66.064" y="17.731" transform="matrix(0.707 0.7073 -0.7073 0.707 33.1705 -43.0961)" width="5.056" height="1.5"/><rect x="67.842" y="6.569" transform="matrix(0.7071 0.7071 -0.7071 0.7071 26.5221 -45.8375)" width="1.5" height="5.055"/><rect x="58.457" y="15.954" transform="matrix(-0.7071 -0.7071 0.7071 -0.7071 88.005 73.4153)" width="1.5" height="5.055"/></g></svg>