<svg xmlns="http://www.w3.org/2000/svg" viewBox="0 0 100 125"><g><path d="M46.91,52.724l1.237,2.998l0.394-0.784c0.006-0.012,0.618-1.206,2.905-3.492c2.287-2.288,3.48-2.9,3.492-2.906l0.785-0.395   l-2.999-1.235L46.91,52.724z M53.894,48.256c-0.608,0.428-1.615,1.226-3.014,2.623c-1.397,1.398-2.194,2.405-2.622,3.014   l-0.404-0.981l5.061-5.059L53.894,48.256z"/><path d="M71.269,41.202c0,0.341,0.132,0.661,0.373,0.902c0.249,0.248,0.575,0.372,0.902,0.372c0.326,0,0.652-0.124,0.901-0.372   c0.24-0.241,0.373-0.562,0.373-0.902c-0.001-0.341-0.133-0.66-0.373-0.9c-0.497-0.495-1.306-0.497-1.803,0   C71.401,40.542,71.269,40.861,71.269,41.202z M72.208,40.868c0.092-0.093,0.214-0.14,0.335-0.14c0.122,0,0.244,0.047,0.337,0.14   c0.089,0.089,0.138,0.208,0.139,0.334c0,0.127-0.05,0.247-0.14,0.336c-0.183,0.185-0.486,0.187-0.671,0   c-0.09-0.09-0.14-0.209-0.14-0.336C72.068,41.076,72.118,40.957,72.208,40.868z"/><path d="M69.992,38.652c-0.682,0.682-1.057,1.587-1.057,2.551c0,0.963,0.376,1.869,1.058,2.551c0.681,0.681,1.587,1.056,2.55,1.057   c0.001,0,0.001,0,0.001,0c0.964,0,1.869-0.375,2.551-1.056c1.405-1.407,1.406-3.696,0.001-5.104   c-0.683-0.681-1.588-1.056-2.552-1.056h-0.001C71.579,37.596,70.674,37.972,69.992,38.652z M74.529,39.218   c1.094,1.095,1.094,2.876-0.001,3.971c-0.529,0.53-1.234,0.821-1.984,0.821c0,0,0,0-0.001,0c-0.749,0-1.454-0.292-1.983-0.822   c-0.531-0.53-0.823-1.235-0.824-1.984c0-0.75,0.292-1.455,0.823-1.984c0.529-0.531,1.234-0.823,1.984-0.823   c0.001,0,0.001,0,0.001,0C73.294,38.396,73.999,38.688,74.529,39.218z"/><path d="M81.899,24.336l13.78-18.66l-0.724-1.837l-36.069,43.26c-0.158-0.159-0.318-0.319-0.479-0.479l-0.346-0.343   c-0.3-0.3-0.623-0.565-0.958-0.813l5.915-7.522l-0.629-0.494l-5.953,7.571c-1.278-0.766-2.738-1.183-4.267-1.183   c-1.859,0-3.621,0.612-5.069,1.729l-10.226-9.52l-0.827,0.83l9.52,10.224c-2.091,2.72-2.272,6.437-0.547,9.331l-7.55,5.937   l0.494,0.629l7.499-5.897c0.247,0.335,0.512,0.66,0.814,0.963l0.343,0.345c0.16,0.162,0.32,0.321,0.479,0.479L3.839,94.956   l1.837,0.724l18.661-13.78c0.122,1.166,0.606,2.301,1.498,3.192c1.033,1.034,2.392,1.552,3.75,1.552s2.717-0.518,3.75-1.552   c1.002-1.001,1.554-2.333,1.554-3.75s-0.552-2.749-1.555-3.75c-0.49-0.49-1.057-0.855-1.658-1.113l4.298-3.174   c0.162,1.126,0.661,2.17,1.48,2.988c1.033,1.034,2.392,1.551,3.75,1.551c1.357,0,2.716-0.517,3.75-1.551   c1.002-1.001,1.554-2.333,1.554-3.75s-0.552-2.749-1.555-3.75c-0.444-0.445-0.957-0.775-1.496-1.028l8.38-6.188   c0.019,0,0.035,0.005,0.054,0.005c0.002,0,0.004,0,0.006,0c1.804,0,3.764-1.119,6.165-3.521c2.405-2.404,3.524-4.365,3.521-6.171   c0-0.013-0.003-0.024-0.004-0.037l6.188-8.38c0.258,0.54,0.59,1.046,1.026,1.481c1.033,1.034,2.392,1.551,3.75,1.551   c1.357,0,2.716-0.517,3.751-1.551c2.066-2.068,2.066-5.433-0.002-7.5c-0.818-0.819-1.862-1.317-2.988-1.479l3.174-4.298   c0.258,0.602,0.623,1.168,1.113,1.658c1.033,1.034,2.392,1.552,3.75,1.552s2.717-0.518,3.75-1.552c2.068-2.067,2.068-5.432,0-7.5   C84.201,24.941,83.065,24.459,81.899,24.336z M80.379,24.375c-0.479,0.088-0.939,0.26-1.384,0.479l9.009-10.805L80.379,24.375z    M40.711,40.709l5.776,5.378c-0.069,0.064-0.142,0.122-0.209,0.189s-0.125,0.141-0.189,0.209L40.711,40.709z M24.854,78.996   c-0.22,0.444-0.392,0.904-0.479,1.384l-10.328,7.627L24.854,78.996z M33.688,81.342c0,1.097-0.427,2.127-1.201,2.902   c-1.602,1.6-4.203,1.6-5.805,0c-1.6-1.601-1.601-4.204-0.001-5.805c0.801-0.8,1.852-1.199,2.902-1.199s2.102,0.399,2.902,1.199   v0.001C33.262,79.215,33.688,80.246,33.688,81.342z M45.308,72.543c0,1.097-0.427,2.127-1.201,2.901   c-1.602,1.602-4.205,1.6-5.805,0c-0.775-0.774-1.202-1.806-1.202-2.901c0-1.097,0.427-2.127,1.201-2.902   c0.801-0.8,1.852-1.199,2.902-1.199s2.102,0.399,2.902,1.199v0.001C44.881,70.416,45.308,71.447,45.308,72.543z M42.037,67.321   c-1.621-0.257-3.338,0.225-4.584,1.472c-0.827,0.826-1.326,1.884-1.482,3.023l-5.798,4.28c-0.688-0.076-1.38-0.019-2.049,0.173   l19.853-16.553c0.721,0.652,1.464,1.202,2.284,1.532L42.037,67.321z M57.214,57.212c-2.133,2.133-3.872,3.169-5.317,3.169   c0,0-0.003,0-0.005,0c-1.617-0.002-2.916-1.309-4.42-2.821l-0.346-0.347c-1.347-1.348-2.089-3.14-2.089-5.045   s0.742-3.696,2.089-5.044c1.391-1.39,3.218-2.085,5.044-2.085s3.653,0.695,5.044,2.085l0.347,0.347   c1.514,1.504,2.819,2.803,2.822,4.42C60.385,53.336,59.349,55.076,57.214,57.212z M75.446,44.104   c-1.602,1.602-4.205,1.599-5.805,0.001v-0.001c-0.775-0.774-1.202-1.806-1.202-2.901s0.427-2.127,1.203-2.902   c0.774-0.774,1.805-1.201,2.9-1.201c1.097,0,2.127,0.427,2.902,1.201C77.045,39.901,77.045,42.505,75.446,44.104z M71.815,35.971   c-1.139,0.156-2.195,0.655-3.021,1.481c-1.003,1.002-1.555,2.334-1.555,3.751c0,0.289,0.038,0.571,0.083,0.852l-6.066,8.216   c-0.33-0.824-0.883-1.571-1.538-2.296L76.27,28.123c-0.191,0.67-0.249,1.362-0.173,2.05L71.815,35.971z M84.244,32.486   c-1.602,1.6-4.203,1.6-5.805,0c-1.6-1.601-1.6-4.204,0-5.805c0.801-0.8,1.852-1.199,2.902-1.199s2.102,0.399,2.901,1.199   C85.844,28.282,85.844,30.886,84.244,32.486z"/><path d="M80.44,28.683c-0.496,0.497-0.496,1.306,0,1.803c0.241,0.24,0.562,0.373,0.901,0.373c0.001,0,0.001,0,0.001,0   c0.341,0,0.66-0.133,0.899-0.373c0.241-0.24,0.374-0.561,0.374-0.901c0-0.34-0.132-0.66-0.372-0.901   C81.745,28.187,80.938,28.187,80.44,28.683z M81.677,29.92c-0.089,0.089-0.208,0.139-0.334,0.139h-0.001   c-0.126,0-0.245-0.05-0.335-0.14c-0.186-0.185-0.186-0.485,0-0.67c0.092-0.093,0.214-0.14,0.335-0.14   c0.122,0,0.244,0.047,0.336,0.14c0.09,0.089,0.139,0.208,0.139,0.335S81.767,29.83,81.677,29.92z"/><path d="M78.79,27.033c-1.405,1.406-1.405,3.694,0.001,5.102c0.704,0.703,1.628,1.055,2.552,1.055s1.848-0.351,2.551-1.054   c1.405-1.407,1.406-3.697,0.001-5.104C82.486,25.626,80.198,25.629,78.79,27.033z M83.328,31.57   c-1.097,1.096-2.878,1.092-3.971-0.002c-1.095-1.095-1.096-2.875-0.001-3.969c0.547-0.548,1.267-0.822,1.986-0.822   c0.719,0,1.438,0.273,1.985,0.821C84.422,28.692,84.422,30.475,83.328,31.57z"/><path d="M40.302,71.642c-0.497,0.497-0.497,1.307,0.001,1.804c0.248,0.248,0.574,0.371,0.9,0.371c0.327,0,0.653-0.124,0.902-0.372   c0.496-0.497,0.496-1.306-0.001-1.803C41.606,71.146,40.8,71.146,40.302,71.642z M41.539,72.878   c-0.186,0.186-0.487,0.187-0.671,0.001c-0.186-0.185-0.186-0.486,0-0.671c0.092-0.093,0.214-0.139,0.335-0.139   s0.243,0.046,0.335,0.139C41.724,72.393,41.724,72.693,41.539,72.878z"/><path d="M38.652,69.991c-1.406,1.408-1.406,3.697-0.001,5.104c0.704,0.703,1.628,1.054,2.552,1.054   c0.925,0,1.849-0.352,2.553-1.054c1.405-1.407,1.405-3.696-0.001-5.103C42.347,68.586,40.059,68.587,38.652,69.991z M43.189,74.528   c-1.093,1.095-2.877,1.097-3.972,0c-1.095-1.094-1.094-2.876,0.001-3.971c0.547-0.547,1.266-0.82,1.984-0.82   s1.438,0.273,1.985,0.821C44.283,71.652,44.284,73.434,43.189,74.528z"/><path d="M30.486,80.44c-0.498-0.497-1.306-0.495-1.804,0c-0.496,0.497-0.496,1.306,0,1.803c0.249,0.248,0.575,0.372,0.902,0.372   c0.326,0,0.652-0.124,0.901-0.372C30.982,81.747,30.982,80.938,30.486,80.44L30.486,80.44z M29.92,81.677   c-0.183,0.185-0.486,0.187-0.671,0c-0.186-0.185-0.186-0.485,0-0.67c0.092-0.093,0.214-0.14,0.335-0.14   c0.122,0,0.243,0.047,0.336,0.139C30.104,81.191,30.104,81.492,29.92,81.677z"/><path d="M29.584,77.734C29.584,77.734,29.584,77.734,29.584,77.734c-0.964,0-1.869,0.375-2.55,1.056   c-1.406,1.406-1.407,3.695-0.002,5.104c0.704,0.703,1.628,1.054,2.552,1.054c0.925,0,1.849-0.352,2.553-1.055   c1.405-1.406,1.405-3.694-0.001-5.102C31.453,78.11,30.547,77.734,29.584,77.734z M31.57,83.326   c-1.094,1.095-2.878,1.097-3.972,0.002c-1.094-1.096-1.094-2.878,0.002-3.972c0.529-0.53,1.233-0.822,1.982-0.822   c0.001,0,0.001,0,0.001,0c0.75,0,1.455,0.293,1.985,0.823C32.664,80.452,32.665,82.232,31.57,83.326z"/></g></svg>